<svg xmlns="http://www.w3.org/2000/svg" xmlns:xlink="http://www.w3.org/1999/xlink" width="518.033" height="616.278" viewBox="0 0 518.033 616.278">
  <defs>
    <linearGradient id="linear-gradient" x1="0.5" x2="0.5" y2="1.727" gradientUnits="objectBoundingBox">
      <stop offset="0" stop-color="#9ce644"/>
      <stop offset="1" stop-color="#4e7322"/>
    </linearGradient>
    <filter id="Path_1763" x="131.609" y="260.114" width="260.57" height="279.544" filterUnits="userSpaceOnUse">
      <feOffset dy="3" input="SourceAlpha"/>
      <feGaussianBlur stdDeviation="3" result="blur"/>
      <feFlood flood-opacity="0.161"/>
      <feComposite operator="in" in2="blur"/>
      <feComposite in="SourceGraphic"/>
    </filter>
    <linearGradient id="linear-gradient-2" x1="0.5" x2="0.5" y2="1.132" gradientUnits="objectBoundingBox">
      <stop offset="0" stop-color="#a0ea47"/>
      <stop offset="1" stop-color="#4e9000"/>
    </linearGradient>
    <radialGradient id="radial-gradient" cx="0.5" cy="0.5" r="0.5" gradientUnits="objectBoundingBox">
      <stop offset="0" stop-color="#828282"/>
      <stop offset="1" stop-color="#e2e2e2" stop-opacity="0.349"/>
    </radialGradient>
  </defs>
  <g id="Group_1074" data-name="Group 1074" transform="translate(-211.787 -232)">
    <g id="Group_1065" data-name="Group 1065" transform="translate(13450.529 -2664.167)">
      <path id="Path_1903" data-name="Path 1903" d="M4.253,130.289l26.426.329L29.518,38.65,142.766,25.474,149.591,0,0,10.779Z" transform="translate(-13238.742 3173.523) rotate(-67)" fill="#72a932"/>
      <path id="Path_1904" data-name="Path 1904" d="M69.544,25.813c6.071,19.024-4.184,38.961-22.906,44.533S7.818,65.011,1.747,45.987,5.933,7.026,24.653,1.456,63.473,6.79,69.544,25.813" transform="translate(-13133.874 3255.565) rotate(-83)" fill="#263238"/>
      <g id="Group_1064" data-name="Group 1064" transform="matrix(0.995, 0.105, -0.105, 0.995, -12888.615, 2968.237)">
        <path id="Path_1879" data-name="Path 1879" d="M4.253.329,30.68,0,29.518,91.967l113.248,13.177,6.826,25.474L0,119.839Z" transform="translate(74.796 246.871) rotate(-120)" fill="#72a932"/>
        <path id="Path_1880" data-name="Path 1880" d="M69.544,45.988C75.615,26.964,65.36,7.027,46.638,1.455S7.818,6.791,1.747,25.815,5.933,64.776,24.653,70.345s38.82-5.333,44.891-24.357" transform="matrix(-0.122, -0.993, 0.993, -0.122, 24.024, 284.442)" fill="#263238"/>
        <path id="Path_1892" data-name="Path 1892" d="M52.158,34.492c4.554-14.267-3.139-29.221-17.18-33.4S5.863,5.093,1.311,19.36s3.137,29.221,17.178,33.4,29.115-4,33.669-18.268" transform="matrix(-0.122, -0.993, 0.993, -0.122, 131.297, 202.178)" fill="#263238"/>
        <g id="Group_1053" data-name="Group 1053" transform="matrix(-0.819, -0.574, 0.574, -0.819, 111.962, 104.025)">
          <path id="Path_1895" data-name="Path 1895" d="M.22,7.832l16.863,15a4.676,4.676,0,0,0,6.611-.5l.463-.523a4.719,4.719,0,0,0-.305-6.647L6.989.165a.673.673,0,0,0-.953.071L.177,6.874a.679.679,0,0,0,.044.958" transform="matrix(0.438, -0.899, 0.899, 0.438, 39.335, 22.81)" fill="#263238"/>
          <path id="Path_1896" data-name="Path 1896" d="M.032,3.8l6.914,21.7a4.546,4.546,0,0,0,5.878,2.893l.654-.226a4.854,4.854,0,0,0,3.042-6.006L9.605.457A.655.655,0,0,0,8.757.038L.47,2.931A.7.7,0,0,0,.032,3.8" transform="matrix(0.788, -0.616, 0.616, 0.788, 36.136, 48.754)" fill="#263238"/>
          <path id="Path_1897" data-name="Path 1897" d="M.092,5.665l11.5,19.518a4.587,4.587,0,0,0,6.4,1.512l.592-.364a4.813,4.813,0,0,0,1.685-6.493L8.771.32A.663.663,0,0,0,7.848.1L.334,4.729a.7.7,0,0,0-.242.937" transform="matrix(0.788, -0.616, 0.616, 0.788, 41.44, 38.063)" fill="#263238"/>
          <path id="Path_1900" data-name="Path 1900" d="M42.654,14.739a21.208,21.208,0,0,0-27.427-13.5,22.65,22.65,0,0,0-14.2,28.022,21.209,21.209,0,0,0,27.427,13.5,22.648,22.648,0,0,0,14.2-28.022" transform="matrix(0.788, -0.616, 0.616, 0.788, 0, 28.869)" fill="#263238"/>
          <path id="Path_1901" data-name="Path 1901" d="M13.236,0,.719,20.384a4.661,4.661,0,0,0,1.47,6.455l.579.349a4.736,4.736,0,0,0,6.454-1.664L21.739,5.14Z" transform="matrix(0.788, -0.616, 0.616, 0.788, 8.779, 52.682)" fill="#263238"/>
        </g>
      </g>
      <path id="Path_1729" data-name="Path 1729" d="M104.979,319.6a29.889,29.889,0,0,1-21.724-9.421c-5.874-6.049-9.147-15-9.147-23.553a31.694,31.694,0,0,1,9.147-22.376,29.889,29.889,0,0,1,21.724-9.421,32.487,32.487,0,0,1,22.867,9.421,31.7,31.7,0,0,1,9.147,22.376c0,8.556-3.273,17.5-9.147,23.553a32.487,32.487,0,0,1-22.867,9.421m0-64.772a29.963,29.963,0,0,0-21.724,9.421,31.942,31.942,0,0,0,0,44.751,29.969,29.969,0,0,0,21.724,9.421A32.572,32.572,0,0,0,127.846,309c5.859-6.035,8-13.84,8-22.376s-2.144-16.342-8-22.376a32.564,32.564,0,0,0-22.867-9.421" transform="translate(-13194.922 2943.998)" fill="#263238"/>
      <path id="Path_1741" data-name="Path 1741" d="M133.141,241.721H237.188c6.749,0,12.577-4.825,12.577-11.777v-2.355c0-6.951-5.828-11.777-12.577-11.777H133.141c-6.749,0-11.434,4.825-11.434,11.777v2.355c0,6.951,4.685,11.777,11.434,11.777" transform="translate(-13163.629 2915.889)" fill="#263238"/>
      <path id="Path_1742" data-name="Path 1742" d="M63.115,190.61c0,14.923,11.807,27.086,26.3,27.086s26.3-12.163,26.3-27.086-11.809-27.086-26.3-27.086-26.3,12.163-26.3,27.086" transform="translate(-13202.224 2878.675)" fill="#86c63a"/>
      <path id="Path_1743" data-name="Path 1743" d="M62.84,190.536c0,14.923,11.807,27.086,26.3,27.086s26.3-12.163,26.3-27.086-11.809-27.086-26.3-27.086-26.3,12.163-26.3,27.086" transform="translate(-12933.257 2877.571)" fill="#86c63a"/>
      <path id="Path_1744" data-name="Path 1744" d="M206.73,108.315s-106.6-.955-123.484,94.213,73.527,97.121,99.474,98.924c11.767.817,37.243.4,59.455,0,49.177-.879,83.076-10.714,94.9-57.706,1.378-5.479,3.083-10.764,3.43-16.487,3.128-51.5-31.23-121.481-133.775-118.944" transform="translate(-13190.341 2839.67)" fill="#91d63f"/>
      <path id="Path_1745" data-name="Path 1745" d="M277.245,217.976l-155.5,3.533c-16.245.262-29.473-13.887-29.728-30.619S104.356,160.53,120.6,160.27l155.5-2.355c16.245-.262,29.475,12.71,29.728,29.442s-12.34,30.359-28.584,30.619" transform="translate(-13182.605 2874.863)" fill="#263238"/>
      <path id="Path_1746" data-name="Path 1746" d="M136.5,179.674c-1,5.27-5.174,9.276-10.29,8.244a10.475,10.475,0,0,1-8-11.777c1-5.271,6.318-8.1,11.434-7.066s7.863,5.329,6.86,10.6" transform="translate(-13165.84 2882.545)" fill="#fff"/>
      <path id="Path_1747" data-name="Path 1747" d="M201.923,179.316c-1,5.27-6.318,8.1-11.434,7.066s-7.863-5.329-6.86-10.6,6.318-9.275,11.434-8.244,7.863,6.507,6.86,11.777" transform="translate(-13122.648 2881.725)" fill="#fff"/>
      <g id="Group_1003" data-name="Group 1003" transform="translate(-12992.757 2896.167)">
        <rect id="Rectangle_745" data-name="Rectangle 745" width="9.147" height="47.107" transform="translate(10.29 15.31)" fill="#263238"/>
        <path id="Path_1748" data-name="Path 1748" d="M151.256,93.523c0,8.371,6.736,14.132,14.864,14.132s13.72-5.761,13.72-14.132-5.591-15.31-13.72-15.31-14.864,6.939-14.864,15.31" transform="translate(-151.256 -78.213)" fill="#86c63a"/>
      </g>
      <path id="Path_1750" data-name="Path 1750" d="M230.857,224.051c-.158-.092,1.59-2.847,3.43-8.244a87.687,87.687,0,0,0,4.573-21.2A182.946,182.946,0,0,0,240,172.234c-.13-2.862-1.017-5.468-1.143-7.066a8.072,8.072,0,0,1,0-2.355A3.469,3.469,0,0,1,240,165.168c.228,1.591-.208,4.2,0,7.066a135.21,135.21,0,0,1,0,22.376,79.911,79.911,0,0,1-4.573,21.2,52.985,52.985,0,0,1-3.43,7.066c-.821,1.377-1.093,1.21-1.143,1.178" transform="translate(-13090.983 2878.208)" fill="#263238"/>
      <path id="Path_1751" data-name="Path 1751" d="M83.919,161.221a3.271,3.271,0,0,1,0,2.355c-.2.774-.926,2.416-1.143,3.533s.206,2.115,0,3.533c-.52,2.816-2.042,6.824-2.287,10.6-.19,3.778.788,7.427,1.143,11.777.394,4.35.31,8.091,1.143,11.777.885,3.672,2.437,6.745,3.43,9.421.446,1.358.729,3.654,1.143,4.711s.809,1.629,1.143,2.355c.652,1.457,1.2,2.326,1.143,2.355s-.4-.937-1.143-2.355a25.437,25.437,0,0,1-1.143-2.355c-.459-1.045-1.8-2.178-2.287-3.533-1.074-2.67-1.349-6.9-2.287-10.6a78.811,78.811,0,0,1-2.287-11.777,77.663,77.663,0,0,1,0-11.777,90.565,90.565,0,0,1,1.143-10.6,37.131,37.131,0,0,1,1.143-3.533c.263-1.115-.258-2.771,0-3.533a6.48,6.48,0,0,1,1.143-2.355" transform="translate(-13191.014 2877.444)" fill="#263238"/>
      <path id="Path_1752" data-name="Path 1752" d="M87.314,254.224c0-.014-.419-.142,0,0,.457.159,1.505.9,2.287,1.178,1.666.6,3.816,1.251,6.86,2.355,1.541.567,3.851.493,5.717,1.178,1.884.649,3.5,1.645,5.717,2.355,4.443,1.36,9.181,3.334,14.864,4.711,2.827.747,6.064,1.542,9.147,2.355s6.94,1.607,10.29,2.355c6.689,1.582,12.969,2.264,20.581,3.533a379.809,379.809,0,0,0,50.308,3.533,379.768,379.768,0,0,0,50.308-3.533c7.612-1.267,15.035-1.951,21.724-3.533,3.35-.748,6.059-1.556,9.147-2.355s6.32-1.61,9.147-2.355c5.683-1.377,10.421-3.353,14.864-4.711,2.213-.709,4.976-1.708,6.86-2.355,1.865-.687,3.032-.611,4.573-1.178,3.044-1.1,5.194-1.751,6.86-2.355.783-.274,1.831-1.018,2.287-1.178.419-.142-.005-.014,0,0s.407-.17,0,0c-.451.182-1.517.869-2.287,1.178-1.654.642-3.837,1.182-6.86,2.355-1.535.589-2.713,1.641-4.573,2.355-1.877.671-4.651.445-6.86,1.178-4.434,1.406-9.181,3.294-14.864,4.711-2.827.765-6.063,1.521-9.147,2.355-3.089.819-5.792,1.59-9.147,2.355-6.7,1.617-14.1,3.418-21.724,4.711a371.338,371.338,0,0,1-50.308,3.533,371.392,371.392,0,0,1-50.308-3.533c-7.625-1.295-15.028-3.094-21.724-4.711-3.355-.767-6.058-1.535-9.147-2.355-3.084-.836-6.32-1.59-9.147-2.355-5.683-1.42-10.429-3.3-14.864-4.711-2.21-.733-3.84-.506-5.717-1.178-1.861-.714-4.182-1.766-5.717-2.355-3.023-1.173-5.208-1.713-6.86-2.355-.77-.31-1.838-1-2.287-1.178-.409-.17-.005.014,0,0" transform="translate(-13186.406 2943.427)" fill="#263238"/>
      <path id="Path_1753" data-name="Path 1753" d="M190.942,112.407c0,.015.254-.029,0,0-.306.027-.691,1.137-1.143,1.178-.989.106-2.7-.231-4.573,0a107.051,107.051,0,0,0-16.007,2.355c-6.564,1.564-13.642,4.387-21.724,8.244s-17.2,8.607-25.154,15.31c-7.9,6.77-14.24,14.933-19.437,22.376a116.493,116.493,0,0,0-11.434,21.2,128.493,128.493,0,0,0-5.717,15.31c-.577,1.851-.856,2.553-1.143,3.533-.126.449.085.873,0,1.178a7.329,7.329,0,0,0,0,1.178,7.328,7.328,0,0,1,0-1.178c.063-.31-.093-.72,0-1.178.234-1,.615-1.661,1.143-3.533.951-3.771,1.883-10.081,4.574-16.487s7.364-13.676,12.577-21.2a110.171,110.171,0,0,1,19.437-21.2,119.71,119.71,0,0,1,25.154-16.487,98.605,98.605,0,0,1,21.724-7.066,102.849,102.849,0,0,1,16.007-2.355c1.886-.18,3.579-1.13,4.573-1.178.454-.007.836,0,1.143,0,.254,0,0-.015,0,0" transform="translate(-13188.272 2842.643)" fill="#fff"/>
      <path id="Path_1754" data-name="Path 1754" d="M87.6,199.795c-.1.043-.37-1.349-1.143-3.533a41.384,41.384,0,0,1-2.287-8.244c-.53-3.511-1.233-7.1-1.143-9.421s1.035-3.542,1.143-3.533c.271.012-1.076,6.034,0,12.954,1.029,6.924,3.685,11.679,3.43,11.777" transform="translate(-13188.98 2887.155)" fill="#fff"/>
      <path id="Path_1755" data-name="Path 1755" d="M70.43,196.929a.908.908,0,0,0,0-1.178,22.834,22.834,0,0,1-2.287-3.533c-1.357-2.653-2.88-5.958-2.287-10.6s3.737-8.4,5.717-10.6a16.552,16.552,0,0,1,2.287-2.355A8.641,8.641,0,0,0,75,167.488c.1.128-1.621,1.262-3.43,3.533A22.408,22.408,0,0,0,67,181.62c-.565,4.424,1.111,7.957,2.287,10.6,1.171,2.678,1.268,4.613,1.143,4.711" transform="translate(-13200.392 2881.777)" fill="#fff"/>
      <path id="Path_1756" data-name="Path 1756" d="M253.033,174.8c-.181.2-2.953-1.606-6.86-3.533-3.889-1.968-6.9-2.083-6.86-2.355-.007-.219,3.955-.867,8,1.178,4.065,2.009,5.89,4.58,5.717,4.711" transform="translate(-13082.287 2883.889)" fill="#fff"/>
      <path id="Path_1757" data-name="Path 1757" d="M124.262,409.028a4.021,4.021,0,0,0,0-1.178c-.148-.276-.927.4-1.143,0-.5-.966-1.437-3.058-2.287-4.711-.434-.863-.623-1.319-1.143-2.355-.482-1.07-.585-2.293-1.143-3.533-1.131-2.481-2.195-5.034-3.43-8.244-.638-1.6-1.593-4.147-2.287-5.888-.635-1.767-1.6-2.81-2.287-4.711-1.428-3.786-2-8.634-3.43-12.954-2.605-8.726-5.759-17.987-8-28.264-2.2-10.291-3.248-20.418-4.574-29.442-1.224-9.037-2.9-16.674-3.43-23.553-.323-3.434.166-6.686,0-9.421-.186-2.735-1.09-5.138-1.143-7.066-.062-1.867.035-3.62,0-4.711-.007-.462,0-.864,0-1.178,0-.26-.015,0,0,0s-.028-.259,0,0c.027.313-.042.717,0,1.178.075,1.089-.128,2.847,0,4.711.106,1.923.911,4.338,1.143,7.066.211,2.728.781,5.995,1.143,9.421.609,6.862,1.021,14.538,2.287,23.553,1.365,9,3.525,19.173,5.717,29.442,2.24,10.253,4.3,19.549,6.86,28.264,1.4,4.318,3.177,9.17,4.574,12.954.665,1.9.525,2.942,1.143,4.711.675,1.745,1.668,3.109,2.287,4.711,1.2,3.218,2.343,6.926,3.43,9.421.534,1.248.681,2.456,1.143,3.533.494,1.048,1.874,1.482,2.287,2.355.786,1.682.683,3.728,1.143,4.711.186.42,1.015-.286,1.143,0a3.963,3.963,0,0,1,0,1.178" transform="translate(-13184.478 2948.784)" fill="#fff"/>
      <path id="Path_1758" data-name="Path 1758" d="M81.091,266.519c-.017.245-5.885.49-12.577,0s-11.45-.931-11.434-1.178,4.738-.493,11.434,0,12.594.935,12.577,1.178" transform="translate(-13206.479 2951.151)" fill="#fff"/>
      <path id="Path_1759" data-name="Path 1759" d="M161.213,391.467c-.01.06.1-.962-1.143-1.178a51.352,51.352,0,0,1-12.577-3.533c-2.7-1.336-6.309-2.676-9.147-4.711-2.822-2.064-4.727-4.9-6.86-7.066-2.1-2.2-4.387-4-5.717-5.888a25.941,25.941,0,0,1-2.287-4.711,16.424,16.424,0,0,1-1.143-2.355c.141-.087,1.8,2.271,4.574,5.888,1.377,1.815,2.47,4.932,4.573,7.066,2.137,2.1,5.224,3.854,8,5.888a60.241,60.241,0,0,0,8,4.711c2.662,1.317,4.735,2.814,6.86,3.533,4.243,1.469,6.892,2.189,6.86,2.355" transform="translate(-13163.117 3020.519)" fill="#fff"/>
      <path id="Path_1760" data-name="Path 1760" d="M223.75,154.527c0,.247-20.558,1.178-45.735,1.178s-44.592-.931-44.592-1.178,19.4,0,44.592,0,45.735-.247,45.735,0" transform="translate(-13155.909 2872.361)" fill="#fff"/>
      <path id="Path_1761" data-name="Path 1761" d="M169.986,224.4c0,.031.509-.055,0,0-.609.055-1.406-.079-2.287,0-.964.084-2.053,1.155-3.43,1.178s-2.841.057-4.574,0c-3.47-.009-8.015-.679-12.577-1.178a129.573,129.573,0,0,1-14.864-2.355,141.754,141.754,0,0,1-14.864-4.711,97.607,97.607,0,0,1-10.29-4.711c-1.575-.748-3.355-1.694-4.573-2.355s-2.6-1.835-3.43-2.355c-.753-.474-.621-.849-1.143-1.178-.431-.281-1.158.027-1.143,0a1.6,1.6,0,0,1,1.143,0c.544.288.359.762,1.143,1.178.85.473,2.191,1.747,3.43,2.355s2.987.47,4.573,1.178c3.128,1.507,7.146,3.111,11.434,4.711,4.306,1.553,8.6,3.45,13.72,4.711a142.072,142.072,0,0,0,14.864,2.355c4.529.539,9.127,1.089,12.577,1.178,1.728.1,3.2-.015,4.574,0s2.464.033,3.43,0c.883-.012,1.675.007,2.287,0,.509,0,0-.031,0,0" transform="translate(-13179.895 2909.661)" fill="#fff"/>
      <path id="Path_1762" data-name="Path 1762" d="M286.629,262.531c0,.014.268-.109,0,0-.316.122-.658-.187-1.143,0-1.121.411-2.615,1.638-4.573,2.355-2.007.745-5.1,1.477-8,2.355-2.9.9-5.446,1.407-9.147,2.355-1.846.5-3.7,1.807-5.717,2.355s-4.675.654-6.86,1.178c-4.361,1.089-8.764,1.391-13.721,2.355-9.946,1.728-21.537,3.937-33.158,4.711a294.493,294.493,0,0,1-32.014,0c-5.035-.331-10.406-.647-14.864-1.178-2.231-.243-3.653-.9-5.717-1.178s-4.968.267-6.86,0c-3.786-.476-6.161-1.831-9.147-2.355-2.99-.505-5.924-.691-8-1.178-2.028-.466-3.411-.911-4.574-1.178-.5-.125-.816.082-1.143,0a7.257,7.257,0,0,0-1.143,0,7.046,7.046,0,0,1,1.143,0c.334.06.633-.089,1.143,0,1.169.228,2.532.782,4.574,1.178,2.087.433,5.011.719,8,1.178,2.988.474,6.506.741,10.29,1.178,1.891.247,3.658.907,5.717,1.178s3.492-.228,5.717,0c4.451.5,9.842.87,14.864,1.178a307.124,307.124,0,0,0,32.014,0c11.587-.772,23.231-1.855,33.158-3.533,4.948-.938,9.362-2.478,13.721-3.533,2.183-.505,4.845-.657,6.86-1.178s3.871-.695,5.717-1.178c3.7-.909,6.237-2.685,9.147-3.533,2.916-.832,5.983-1.662,8-2.355,1.98-.651,3.44-.8,4.573-1.178.5-.152.819.1,1.143,0,.278-.082-.005-.014,0,0" transform="translate(-13163.906 2949.25)" fill="#fff"/>
      <g transform="matrix(1, 0, 0, 1, -13238.74, 2896.17)" filter="url(#Path_1763)">
        <path id="Path_1763-2" data-name="Path 1763" d="M92.133,276.774S88.682,492.605,211.043,497,333.384,279.13,333.384,279.13s4.149-15.639-3.43-21.2c-13.1-9.614-44.645-23.222-116.624-22.376-60.038.7-92.761,10.272-109.764,18.843-14,7.056-11.434,22.376-11.434,22.376" transform="translate(48.66 30.6)" fill="url(#linear-gradient)"/>
      </g>
      <ellipse id="Ellipse_94" data-name="Ellipse 94" cx="95.472" cy="15.899" rx="95.472" ry="15.899" transform="translate(-13072.794 3162.32)" fill="#68992d"/>
      <g id="Group_1004" data-name="Group 1004" transform="translate(-13034.119 3234.005)">
        <path id="Path_1764" data-name="Path 1764" d="M241.669,338.124c-2.162,30.478-27.578,54.044-57.169,51.817s-52.47-29.583-50.308-60.061a54.588,54.588,0,0,1,58.312-50.64c29.59,2.229,51.329,28.405,49.165,58.883" transform="translate(-127.131 -279.088)" fill="#263238"/>
        <path id="Path_1765" data-name="Path 1765" d="M219.073,328.768c-1.575,22.209-19.6,39.31-41.161,37.685s-38.165-21.365-36.588-43.574a39.3,39.3,0,0,1,42.3-36.508c21.562,1.622,37.02,20.187,35.445,42.4" transform="translate(-119.399 -270.909)" fill="#fff"/>
        <path id="Path_1766" data-name="Path 1766" d="M195.185,389.983a9.8,9.8,0,0,0-1.143,0c-.974.02-2.715,1.291-4.573,1.178-3.716-.009-9.615-1.562-16.007-3.533-3.2-.966-6.767-1.751-10.29-3.533a64.628,64.628,0,0,1-10.29-7.066c-6.932-5.615-13-13.91-17.151-23.553a60.3,60.3,0,0,1-4.573-28.264,72.416,72.416,0,0,1,2.287-12.954c1.143-3.866,1.927-7.529,3.43-10.6A52.357,52.357,0,0,1,146.02,288.7c1.19-1.476,2.751-2.813,3.43-3.533.711-.691,1.118-1.206,1.143-1.178.083.087-2.173,1.826-4.573,4.711a56.547,56.547,0,0,0-8,12.954,72.623,72.623,0,0,0-3.43,10.6,74.841,74.841,0,0,0-2.287,12.954,62.173,62.173,0,0,0,4.573,28.264,59.5,59.5,0,0,0,17.151,22.376,66.749,66.749,0,0,0,10.29,7.066,72.339,72.339,0,0,0,10.29,4.711,50.681,50.681,0,0,0,14.864,2.355c3.686.164,5.713-.122,5.717,0" transform="translate(-130.956 -273.242)" fill="#fff"/>
        <path id="Path_1767" data-name="Path 1767" d="M-.937,50.018s4.926-2.482,6.86-3.533c.6-.327.544-.844,1.143-1.178.309-.171,1.463-.9,1.143-1.178-3.259-2.827-6.5-6.5-8-10.6a24.957,24.957,0,0,1-1.143-10.6,25.2,25.2,0,0,1,8-16.487c3.5-3.432,7.812-5.067,12.577-5.888,7.838-1.351,14.649.459,20.581,5.888,4.179,3.825,5.972,8.44,6.86,14.132,1.39,8.906-.554,17.327-6.86,23.553-3.836,3.787-8.433,5.247-13.72,5.888M39.081,25.287c.022-.493.311-.857,0-1.178-2.12-2.182-4.737-4.887-6.86-7.066-.212-.218.252.165,0,0a.859.859,0,0,0-1.143,0,.976.976,0,0,0,0,1.178c.127.23-.18-.185,0,0,1.806,1.859,3.914,4.026,5.717,5.888a1.66,1.66,0,0,1,0,2.355c-.821.794-1.476,1.551-2.287,2.355-1.13,1.122-2.326,2.384-3.43,3.533-.441.46-.323.778,0,1.178.355.439.635.28,1.143,0,.227-.125-.18-.993,0-1.178,1.394-1.429,3.179-2.105,4.573-3.533.821-.84,1.468-1.512,2.287-2.355.192-.2.041-.871,0-1.178M15.07,17.044c-.258.043.187-.189,0,0-.521.526-1.77.647-2.287,1.178-1.684,1.73-2.9,4.149-4.573,5.888-.978,1.015-.979,1.355,0,2.355.372.379.771.8,1.143,1.178,1.807,1.835,3.9,4.063,5.717,5.888a.7.7,0,0,0,1.143,0c.359-.361.371-.694,0-1.178-.069-.09.079-1.1,0-1.178-1.736-1.769-3.971-2.952-5.717-4.711-.922-.928-.923-1.4,0-2.355,1.734-1.795,3.984-4.093,5.717-5.888.2-.21-.111.276,0,0,.207-.514-.607-1.186-1.143-1.178m11.434,0c-.5-.051-.927-.488-1.143,0C23.5,21.241,22.651,25.8,20.787,30c-.388.874-.795,1.464-1.143,2.355-.2.517-.4.951,0,1.178.469.267.814.425,1.143,0,.146-.188-.1-.957,0-1.178,2.128-4.789,4.737-9.34,6.86-14.132a2.787,2.787,0,0,0,0-1.178c-.022-.516-.572.019-1.143,0" transform="translate(37.724 30.215)" fill="url(#linear-gradient-2)"/>
      </g>
      <ellipse id="Ellipse_100" data-name="Ellipse 100" cx="148.067" cy="23.439" rx="148.067" ry="23.439" transform="translate(-13134.013 3465.567)" opacity="0.68" fill="url(#radial-gradient)"/>
      <path id="Path_1906" data-name="Path 1906" d="M3.43,1.984s19.06-8.668,36.21-8.668S72.033,1.984,72.033,1.984a3.43,3.43,0,0,1,0,6.86S56.791-.133,39.641-.133,3.43,8.845,3.43,8.845a3.43,3.43,0,0,1,0-6.86Z" transform="translate(-13021.989 3077.694)" fill="#fff"/>
      <path id="Path_1905" data-name="Path 1905" d="M52.158,19.36c4.554,14.267-3.139,29.221-17.18,33.4s-29.115-4-33.667-18.268S4.448,5.271,18.489,1.092s29.115,4,33.669,18.268" transform="translate(-13238.742 3192.348) rotate(-83)" fill="#263238"/>
      <g id="Group_1062" data-name="Group 1062" transform="translate(-13225.266 3035.881) rotate(-45)">
        <path id="Path_1895-2" data-name="Path 1895" d="M.22,16.138l16.863-15a4.676,4.676,0,0,1,6.611.5l.463.523a4.719,4.719,0,0,1-.305,6.647l-16.863,15a.673.673,0,0,1-.953-.071L.177,17.1a.679.679,0,0,1,.044-.958" transform="matrix(0.438, 0.899, -0.899, 0.438, 60.88, 41.306)" fill="#263238"/>
        <path id="Path_1896-2" data-name="Path 1896" d="M.032,24.857l6.914-21.7A4.546,4.546,0,0,1,12.824.266l.654.226A4.854,4.854,0,0,1,16.519,6.5L9.605,28.2a.655.655,0,0,1-.848.418L.47,25.722a.7.7,0,0,1-.438-.865" transform="matrix(0.788, 0.616, -0.616, 0.788, 53.777, 3.291)" fill="#263238"/>
        <path id="Path_1897-2" data-name="Path 1897" d="M.092,21.743l11.5-19.518a4.587,4.587,0,0,1,6.4-1.512l.592.364A4.812,4.812,0,0,1,20.266,7.57L8.771,27.088a.663.663,0,0,1-.924.217L.334,22.68a.7.7,0,0,1-.242-.937" transform="matrix(0.788, 0.616, -0.616, 0.788, 58.315, 14.963)" fill="#263238"/>
        <path id="Path_1900-2" data-name="Path 1900" d="M42.654,29.261a21.208,21.208,0,0,1-27.427,13.5,22.65,22.65,0,0,1-14.2-28.022,21.209,21.209,0,0,1,27.427-13.5,22.648,22.648,0,0,1,14.2,28.022" transform="matrix(0.788, 0.616, -0.616, 0.788, 27.089, 11.082)" fill="#263238"/>
        <path id="Path_1901-2" data-name="Path 1901" d="M13.236,27.844.719,7.46A4.661,4.661,0,0,1,2.189,1L2.767.656A4.736,4.736,0,0,1,9.222,2.32L21.739,22.7Z" transform="matrix(0.788, 0.616, -0.616, 0.788, 25.922, 0)" fill="#263238"/>
      </g>
    </g>
  </g>
</svg>
