<svg xmlns="http://www.w3.org/2000/svg" width="168.512" height="173.568" viewBox="0 0 168.512 173.568">
  <g id="chat" transform="translate(18143.279 11403.116)">
    <ellipse id="Ellipse_103" data-name="Ellipse 103" cx="84.231" cy="86.784" rx="84.231" ry="86.784" transform="translate(-18143.279 -11403.116)" fill="#fbf7ed"/>
    <ellipse id="Ellipse_104" data-name="Ellipse 104" cx="84.231" cy="86.784" rx="84.231" ry="86.784" transform="translate(-18143.23 -11403.116)" fill="#7fc032" opacity="0.27"/>
    <path id="help-us" d="M0,44.17V39.645a4.7,4.7,0,0,0,.19-.708,26.054,26.054,0,0,1,19.873-22.8c1.818-.419,3.7-.562,5.667-.851V14.2c0-2.944.091-5.891-.027-8.83C25.6,2.68,26.582.875,29.077,0h48.95c2.495.876,3.4,2.684,3.379,5.365-.073,11.739-.031,23.478-.03,35.217v1.306c.427.039.732.081,1.039.093a25.7,25.7,0,0,1,23.513,18.626c.533,1.8.791,3.691,1.176,5.54v4.309c-.066.308-.158.612-.194.924C105.6,82.69,97.807,91.667,87.04,94.173c-1.816.423-3.694.564-5.623.847-.013.294-.04.644-.041.994,0,2.943-.1,5.891.027,8.829.116,2.716-.829,4.579-3.376,5.475H29.077c-2.55-.893-3.4-2.76-3.381-5.472.08-11.7.034-23.4.034-35.107v-1.3c-.428-.042-.733-.086-1.04-.1A25.737,25.737,0,0,1,.967,48.991C.539,47.415.317,45.779,0,44.17M43.412,61.531c1.084.942,2.346,2.008,3.573,3.116a2.023,2.023,0,0,1,.566,2.345,1.934,1.934,0,0,1-1.837,1.353c-.383.019-.766.025-1.15.025-4.428,0-8.856.031-13.283-.022-1.013-.012-1.366.2-1.358,1.345.055,8.079.029,16.159.031,24.239,0,2.533.627,3.173,3.1,3.173q20.6,0,41.208,0a5.426,5.426,0,0,0,1.346-.127,1.813,1.813,0,0,0,1.356-2.134H75.838c-4.672,0-9.343-.009-14.015.005a2.118,2.118,0,0,1-2.3-1.462,2.221,2.221,0,0,1,.9-2.541c1.158-.973,2.3-1.971,3.487-3-.238-.269-.416-.48-.6-.68a26.421,26.421,0,0,1-7.472-20.928A26.069,26.069,0,0,1,76.1,42.523c.931-.2,1.063-.581,1.061-1.416-.024-8.259-.012-16.518-.014-24.777,0-2.457-.643-3.115-3.049-3.115q-16,0-32.005,0c-3.208,0-6.415,0-9.622,0a2.238,2.238,0,0,0-2.313,1.317c-.414.941-.253,1.246.72,1.461,17.1,3.776,25.733,23.2,17.189,38.85a72.944,72.944,0,0,1-4.659,6.692M25.7,46.337a4.425,4.425,0,0,0-.054-8.847,4.426,4.426,0,0,0,.054,8.847M87.831,68.375a4.348,4.348,0,0,0,4.285,4.453,4.425,4.425,0,0,0,.042-8.845,4.315,4.315,0,0,0-4.327,4.393M14.917,46.337a4.426,4.426,0,0,0,.1-8.848,4.427,4.427,0,0,0-.1,8.848m21.5,0a4.425,4.425,0,1,0-4.282-4.443,4.321,4.321,0,0,0,4.282,4.443M81.467,63.98a4.425,4.425,0,0,0-.079,8.847,4.426,4.426,0,0,0,.079-8.847m-10.823,0a4.425,4.425,0,1,0,4.325,4.4,4.318,4.318,0,0,0-4.325-4.4" transform="translate(-18112.602 -11375.093)" fill="#7fc032"/>
  </g>
</svg>
