<svg xmlns="http://www.w3.org/2000/svg" xmlns:xlink="http://www.w3.org/1999/xlink" width="135" height="135" viewBox="0 0 135 135">
  <defs>
    <linearGradient id="linear-gradient" x1="0.5" x2="0.5" y2="1.132" gradientUnits="objectBoundingBox">
      <stop offset="0" stop-color="#a0ea47"/>
      <stop offset="1" stop-color="#4e9000"/>
    </linearGradient>
    <clipPath id="clip-path">
      <rect id="Rectangle_808" data-name="Rectangle 808" width="97.301" height="6.905" fill="none"/>
    </clipPath>
  </defs>
  <g id="email-logo" transform="translate(-32 -33)">
    <rect id="email-logo-2" data-name="email-logo" width="135" height="135" transform="translate(32 33)" fill="#fbf7ed"/>
    <g id="Group_1119" data-name="Group 1119" transform="translate(-19.338 0.322)">
      <path id="Path_1440" data-name="Path 1440" d="M-1.124,54.66s5.62-3.3,7.794-4.443c.677-.357,1.344-.733,2.018-1.1.347-.187.419-.338.06-.641A27.13,27.13,0,0,1,.738,37.118,26.571,26.571,0,0,1-.927,25.579,27.12,27.12,0,0,1,7.69,7.436a26.222,26.222,0,0,1,13.985-7,26.87,26.87,0,0,1,23.3,6.691,26.009,26.009,0,0,1,8.607,15.663c1.562,9.717-1.3,18.048-8.383,24.841A26.249,26.249,0,0,1,29.7,54.787m14.9-27.2a1.642,1.642,0,0,0-.615-1.259q-3.575-3.571-7.147-7.144a4.723,4.723,0,0,0-.779-.646.9.9,0,0,0-1.215.154.885.885,0,0,0-.146,1.167,3.155,3.155,0,0,0,.534.663q3.044,3.043,6.084,6.089c.73.732.725,1.083-.013,1.777-.922.866-1.86,1.716-2.771,2.594C37.263,32.211,36,33.442,34.758,34.7a.906.906,0,0,0-.14,1.375,1.092,1.092,0,0,0,1.482.266,2.9,2.9,0,0,0,.662-.536q2.35-2.338,4.7-4.675c.923-.917,1.849-1.83,2.769-2.75a.925.925,0,0,0,.369-.784M17.452,18.313a1.354,1.354,0,0,0-.752.375c-.585.574-1.172,1.146-1.753,1.725q-2.839,2.832-5.672,5.67c-1.1,1.108-1.085,1.69.015,2.781.418.414.842.821,1.261,1.234,2.03,2,4.053,4.012,6.094,6a1.02,1.02,0,0,0,1.481.141,1.13,1.13,0,0,0-.02-1.552,3.081,3.081,0,0,0-.252-.277c-1.951-1.93-3.9-3.867-5.859-5.786-1.036-1.013-1.049-1.241-.012-2.283q2.923-2.937,5.841-5.879a2.444,2.444,0,0,0,.561-.773,1.106,1.106,0,0,0-.934-1.381m12.931-.255c-.567-.055-.889.321-1.132.853q-3.137,6.87-6.288,13.733c-.436.954-.88,1.906-1.272,2.879a.84.84,0,0,0,.382,1.188,1,1,0,0,0,1.381-.246,3.284,3.284,0,0,0,.4-.686q3.587-7.838,7.165-15.681a2.562,2.562,0,0,0,.3-1.178c-.024-.563-.3-.842-.944-.863" transform="translate(92.035 52.946)" fill="url(#linear-gradient)"/>
      <rect id="Rectangle_804" data-name="Rectangle 804" width="10.686" height="3.348" transform="translate(69.706 133.977)" fill="#232323"/>
      <rect id="Rectangle_805" data-name="Rectangle 805" width="10.686" height="3.348" transform="translate(129.202 133.977)" fill="#232323"/>
      <rect id="Rectangle_802" data-name="Rectangle 802" width="10.686" height="3.348" transform="translate(69.706 121.548)" fill="#232323"/>
      <rect id="Rectangle_803" data-name="Rectangle 803" width="10.687" height="3.348" transform="translate(129.202 121.55)" fill="#232323"/>
      <rect id="Rectangle_806" data-name="Rectangle 806" width="9.119" height="3.348" transform="translate(69.706 127.413)" fill="#5da00d"/>
      <rect id="Rectangle_807" data-name="Rectangle 807" width="9.119" height="3.348" transform="translate(129.204 127.415)" fill="#5da00d"/>
      <path id="Path_1938" data-name="Path 1938" d="M49.036.164,45.629,5.341,41.9.164H38.134L43.75,8.032l-5.616,7.817H41.9l3.73-5.165,3.621,5.165h3.873l-5.7-7.817,5.7-7.868Z" transform="translate(44.308 121.394)" fill="#232323"/>
      <path id="Path_1939" data-name="Path 1939" d="M93.8,3.409a7.682,7.682,0,0,1,1.4-.115c1.815,0,2.781.85,2.781,2.3,0,1.563-1.149,2.5-3.01,2.5A7.385,7.385,0,0,1,93.8,8.027Zm-3.47,12.846H93.8V10.739c.322.023.735.069,1.218.069a7.169,7.169,0,0,0,5.01-1.655,4.878,4.878,0,0,0,1.425-3.677A4.528,4.528,0,0,0,99.8,1.892,7.43,7.43,0,0,0,95.066.651a29.092,29.092,0,0,0-4.734.322Z" transform="translate(10.013 121.075)" fill="#232323"/>
      <path id="Path_1940" data-name="Path 1940" d="M133.745,3.363a8.743,8.743,0,0,1,1.586-.115c1.609.023,2.574.735,2.574,2.16,0,1.356-1.034,2.229-2.78,2.229h-1.379Zm-3.47,12.891h3.47v-6.09H134.8c1.425.023,2.091.552,2.5,2.482a19.381,19.381,0,0,0,1.08,3.608h3.585c-.3-.6-.781-2.62-1.264-4.366a3.906,3.906,0,0,0-2.068-2.9V8.924a4.11,4.11,0,0,0,2.735-3.815,3.932,3.932,0,0,0-1.425-3.24C138.846,1,137.238.651,134.94.651a30.775,30.775,0,0,0-4.665.322Z" transform="translate(-16.231 121.075)" fill="#232323"/>
      <path id="Path_1941" data-name="Path 1941" d="M214.064,14.782a9.951,9.951,0,0,0,4.324.951c4.188,0,6.157-2.2,6.157-4.754,0-2.15-1.268-3.554-3.961-4.55-1.969-.747-2.83-1.177-2.83-2.15,0-.792.724-1.471,2.218-1.471a7.253,7.253,0,0,1,3.192.724l.77-2.784A9.392,9.392,0,0,0,220.04,0c-3.6,0-5.772,1.969-5.772,4.573,0,2.218,1.652,3.622,4.188,4.5,1.834.656,2.558,1.2,2.558,2.15,0,1-.838,1.652-2.422,1.652a8.8,8.8,0,0,1-3.826-.951Z" transform="translate(-71.282 121.502)" fill="#232323"/>
      <path id="Path_1942" data-name="Path 1942" d="M254.259,14.782a9.951,9.951,0,0,0,4.324.951c4.188,0,6.157-2.2,6.157-4.754,0-2.15-1.268-3.554-3.961-4.55-1.969-.747-2.83-1.177-2.83-2.15,0-.792.724-1.471,2.218-1.471a7.253,7.253,0,0,1,3.192.724l.77-2.784A9.392,9.392,0,0,0,260.235,0c-3.6,0-5.772,1.969-5.772,4.573,0,2.218,1.652,3.622,4.188,4.5,1.833.656,2.558,1.2,2.558,2.15,0,1-.838,1.652-2.422,1.652a8.8,8.8,0,0,1-3.826-.951Z" transform="translate(-97.691 121.502)" fill="#232323"/>
      <path id="Path_1943" data-name="Path 1943" d="M7.865.28l-.98,4.907L5.733.28H3.928l-1.2,4.907L1.757.28H0L1.709,7.021H3.7L4.811,2.584,5.887,7.021H7.875L9.632.28Z" transform="translate(69.706 140.355)" fill="#3f8e33"/>
      <path id="Path_1944" data-name="Path 1944" d="M39.227.28V7.021h4.129V5.705H40.87V4.226h2.2V2.959h-2.2V1.6h2.487V.28Z" transform="translate(43.933 140.355)" fill="#3f8e33"/>
      <g id="Group_1082" data-name="Group 1082" transform="translate(69.706 140.539)">
        <g id="Group_1081" data-name="Group 1081" transform="translate(0 0)" clip-path="url(#clip-path)">
          <path id="Path_1945" data-name="Path 1945" d="M68.135,4.144a1.652,1.652,0,0,1,.355,1.042A1.655,1.655,0,0,1,67.9,6.526a2.49,2.49,0,0,1-1.647.495h-3.14V.279h3.035A2.49,2.49,0,0,1,67.755.75a1.557,1.557,0,0,1,.581,1.278,1.543,1.543,0,0,1-.312.989,1.612,1.612,0,0,1-.831.547,1.571,1.571,0,0,1,.941.581m-3.38-1.138H65.83a.951.951,0,0,0,.619-.178.638.638,0,0,0,.216-.523.653.653,0,0,0-.216-.528.936.936,0,0,0-.619-.182H64.754Zm1.849,2.5a.665.665,0,0,0,.226-.543.7.7,0,0,0-.235-.557.965.965,0,0,0-.648-.2H64.754V5.7h1.21a.974.974,0,0,0,.639-.187" transform="translate(-41.466 -0.183)" fill="#3f8e33"/>
          <path id="Path_1946" data-name="Path 1946" d="M105.717,6.665a2.159,2.159,0,0,1-.936-.711,1.941,1.941,0,0,1-.37-1.133h1.748a.846.846,0,0,0,.259.571.833.833,0,0,0,.577.2.9.9,0,0,0,.576-.168.562.562,0,0,0,.211-.466.552.552,0,0,0-.168-.413,1.353,1.353,0,0,0-.413-.269,6.623,6.623,0,0,0-.7-.24,7.56,7.56,0,0,1-1.066-.4,1.965,1.965,0,0,1-.711-.6,1.659,1.659,0,0,1-.3-1.028,1.766,1.766,0,0,1,.682-1.474A2.8,2.8,0,0,1,106.889,0a2.834,2.834,0,0,1,1.8.533,1.907,1.907,0,0,1,.73,1.484h-1.777a.7.7,0,0,0-.24-.514.846.846,0,0,0-.567-.187.707.707,0,0,0-.48.158.571.571,0,0,0-.182.456.565.565,0,0,0,.307.509,5.006,5.006,0,0,0,.96.394,8.912,8.912,0,0,1,1.061.423,2.016,2.016,0,0,1,.706.586,1.57,1.57,0,0,1,.3.989,1.943,1.943,0,0,1-.293,1.047,2.051,2.051,0,0,1-.85.749,2.907,2.907,0,0,1-1.316.278,3.465,3.465,0,0,1-1.325-.24" transform="translate(-68.601 0)" fill="#3f8e33"/>
          <path id="Path_1947" data-name="Path 1947" d="M132.486.279V4.312a1.335,1.335,0,0,0,.3.932,1.124,1.124,0,0,0,.874.327,1.156,1.156,0,0,0,.883-.327,1.308,1.308,0,0,0,.308-.932V.279h1.642V4.3a2.864,2.864,0,0,1-.384,1.527,2.467,2.467,0,0,1-1.033.941,3.252,3.252,0,0,1-1.445.317,3.163,3.163,0,0,1-1.426-.312,2.326,2.326,0,0,1-.994-.941,3.006,3.006,0,0,1-.365-1.532V.279Z" transform="translate(-85.968 -0.183)" fill="#3f8e33"/>
          <path id="Path_1948" data-name="Path 1948" d="M164.272,3.521a1.977,1.977,0,0,1-.826.783,2.906,2.906,0,0,1-1.383.3h-1.018v2.42H159.4V.28h2.66a3.029,3.029,0,0,1,1.364.278,1.913,1.913,0,0,1,.835.768,2.23,2.23,0,0,1,.279,1.124,2.174,2.174,0,0,1-.269,1.071m-1.633-.447a.824.824,0,0,0,.23-.624.825.825,0,0,0-.23-.625.982.982,0,0,0-.7-.221h-.893V3.3h.893a.979.979,0,0,0,.7-.221" transform="translate(-104.732 -0.184)" fill="#3f8e33"/>
          <path id="Path_1949" data-name="Path 1949" d="M190.481,3.521a1.977,1.977,0,0,1-.826.783,2.9,2.9,0,0,1-1.383.3h-1.018v2.42h-1.642V.28h2.66a3.028,3.028,0,0,1,1.364.278,1.914,1.914,0,0,1,.835.768,2.233,2.233,0,0,1,.279,1.124,2.171,2.171,0,0,1-.269,1.071m-1.633-.447a.824.824,0,0,0,.23-.624.825.825,0,0,0-.23-.625.981.981,0,0,0-.7-.221h-.893V3.3h.893a.978.978,0,0,0,.7-.221" transform="translate(-121.952 -0.184)" fill="#3f8e33"/>
          <path id="Path_1950" data-name="Path 1950" d="M212.732,6.463a3.3,3.3,0,0,1-1.258-1.234,3.446,3.446,0,0,1-.466-1.781,3.422,3.422,0,0,1,.466-1.777A3.314,3.314,0,0,1,212.732.441a3.662,3.662,0,0,1,3.486,0,3.249,3.249,0,0,1,1.248,1.229,3.482,3.482,0,0,1,.456,1.777,3.476,3.476,0,0,1-.461,1.781,3.277,3.277,0,0,1-1.248,1.234,3.648,3.648,0,0,1-3.482,0m3.035-1.594a2.042,2.042,0,0,0,.485-1.421,2.039,2.039,0,0,0-.485-1.426,1.661,1.661,0,0,0-1.292-.533,1.681,1.681,0,0,0-1.3.528,2.036,2.036,0,0,0-.485,1.431,2.041,2.041,0,0,0,.485,1.426,1.675,1.675,0,0,0,1.3.533,1.653,1.653,0,0,0,1.292-.538" transform="translate(-138.637 0)" fill="#3f8e33"/>
          <path id="Path_1951" data-name="Path 1951" d="M246,7.021l-1.4-2.545h-.394V7.021h-1.642V.279h2.756a3.035,3.035,0,0,1,1.359.279,1.916,1.916,0,0,1,.84.763A2.135,2.135,0,0,1,247.8,2.4a2.006,2.006,0,0,1-.38,1.2,2.039,2.039,0,0,1-1.119.749l1.556,2.67Zm-1.8-3.707h1.018a.93.93,0,0,0,.677-.221.833.833,0,0,0,.226-.624.808.808,0,0,0-.226-.605.933.933,0,0,0-.677-.221h-1.018Z" transform="translate(-159.37 -0.183)" fill="#3f8e33"/>
          <path id="Path_1952" data-name="Path 1952" d="M273.706.279V1.595H271.92V7.021h-1.642V1.595h-1.787V.279Z" transform="translate(-176.405 -0.183)" fill="#3f8e33"/>
        </g>
      </g>
    </g>
  </g>
</svg>
