<svg xmlns="http://www.w3.org/2000/svg" xmlns:xlink="http://www.w3.org/1999/xlink" width="264" height="272" viewBox="0 0 264 272">
  <defs>
    <filter id="help-us" x="39" y="37.916" width="185.846" height="190.88" filterUnits="userSpaceOnUse">
      <feOffset dy="3" input="SourceAlpha"/>
      <feGaussianBlur stdDeviation="3" result="blur"/>
      <feFlood flood-opacity="0.161"/>
      <feComposite operator="in" in2="blur"/>
      <feComposite in="SourceGraphic"/>
    </filter>
  </defs>
  <g id="help-us-2" data-name="help-us" transform="translate(-521 -619)">
    <g id="Ellipse_97" data-name="Ellipse 97" transform="translate(521 619)" fill="#91d63f" stroke="#707070" stroke-width="1" opacity="0.15">
      <ellipse cx="132" cy="136" rx="132" ry="136" stroke="none"/>
      <ellipse cx="132" cy="136" rx="131.5" ry="135.5" fill="none"/>
    </g>
    <g transform="matrix(1, 0, 0, 1, 521, 619)" filter="url(#help-us)">
      <path id="help-us-3" data-name="help-us" d="M0,69.22V62.129A7.365,7.365,0,0,0,.3,61.02C2.233,43.452,14.624,29.175,31.441,25.3c2.848-.657,5.791-.881,8.881-1.333V22.247c0-4.613.143-9.233-.042-13.838C40.112,4.2,41.658,1.372,45.567,0h76.711c3.91,1.372,5.321,4.206,5.3,8.408-.114,18.4-.048,36.793-.048,55.189v2.047c.669.061,1.148.127,1.628.146A40.268,40.268,0,0,1,166,94.978c.835,2.825,1.24,5.785,1.844,8.682v6.753c-.1.482-.247.96-.3,1.448-2.058,17.723-14.267,31.791-31.14,35.718-2.846.662-5.79.884-8.811,1.327-.02.461-.063,1.01-.064,1.558-.005,4.613-.155,9.233.042,13.836.182,4.256-1.3,7.176-5.29,8.579H45.567c-4-1.4-5.328-4.325-5.3-8.575.126-18.338.054-36.677.054-55.016v-2.045c-.67-.065-1.149-.134-1.63-.156C21.081,106.311,6.266,94.267,1.516,76.775.845,74.3.5,71.74,0,69.22M68.031,96.426c1.7,1.476,3.677,3.147,5.6,4.883a3.17,3.17,0,0,1,.887,3.675,3.031,3.031,0,0,1-2.878,2.12c-.6.03-1.2.039-1.8.04-6.939,0-13.878.049-20.815-.034-1.588-.019-2.14.313-2.128,2.107.086,12.661.046,25.323.049,37.985,0,3.969.982,4.973,4.854,4.973q32.289,0,64.578-.008a8.5,8.5,0,0,0,2.11-.2c1.519-.392,2.25-1.552,2.125-3.344h-1.763c-7.321,0-14.642-.015-21.964.008-1.7.005-3.034-.552-3.606-2.291a3.481,3.481,0,0,1,1.4-3.982c1.815-1.524,3.6-3.089,5.465-4.7-.374-.421-.651-.752-.947-1.065a41.4,41.4,0,0,1-11.71-32.8c1.366-18.257,14.393-33.5,31.776-37.161,1.459-.308,1.666-.91,1.662-2.22-.037-12.943-.019-25.886-.022-38.829,0-3.851-1.007-4.881-4.779-4.881q-25.078-.006-50.155,0c-5.027,0-10.053.008-15.079,0a3.506,3.506,0,0,0-3.625,2.064c-.648,1.474-.4,1.952,1.129,2.289,26.8,5.917,40.326,36.358,26.938,60.882-2.01,3.68-4.788,6.916-7.3,10.487M40.28,72.615A6.935,6.935,0,0,0,40.2,58.75a6.936,6.936,0,0,0,.084,13.865m97.36,34.535a6.814,6.814,0,0,0,6.715,6.978,6.935,6.935,0,0,0,.066-13.862,6.762,6.762,0,0,0-6.781,6.884M23.376,72.615a6.936,6.936,0,0,0,.16-13.866,6.937,6.937,0,0,0-.16,13.866m33.695,0a6.935,6.935,0,1,0-6.71-6.962,6.772,6.772,0,0,0,6.71,6.962m70.6,27.649a6.935,6.935,0,0,0-.124,13.865,6.936,6.936,0,0,0,.124-13.865m-16.961,0a6.935,6.935,0,1,0,6.777,6.892,6.767,6.767,0,0,0-6.777-6.892" transform="translate(48 43.92)" fill="#90d53f"/>
    </g>
  </g>
</svg>
