<svg xmlns="http://www.w3.org/2000/svg" xmlns:xlink="http://www.w3.org/1999/xlink" width="510.022" height="539" viewBox="0 0 510.022 539">
  <defs>
    <linearGradient id="linear-gradient" x1="0.5" x2="0.5" y2="1.727" gradientUnits="objectBoundingBox">
      <stop offset="0" stop-color="#9ce644"/>
      <stop offset="1" stop-color="#4e7322"/>
    </linearGradient>
    <filter id="Path_1763" x="118.404" y="226.745" width="230.153" height="246.748" filterUnits="userSpaceOnUse">
      <feOffset dy="3" input="SourceAlpha"/>
      <feGaussianBlur stdDeviation="3" result="blur"/>
      <feFlood flood-opacity="0.161"/>
      <feComposite operator="in" in2="blur"/>
      <feComposite in="SourceGraphic"/>
    </filter>
    <linearGradient id="linear-gradient-2" x1="0.5" x2="0.5" y2="1.132" gradientUnits="objectBoundingBox">
      <stop offset="0" stop-color="#a0ea47"/>
      <stop offset="1" stop-color="#4e9000"/>
    </linearGradient>
    <radialGradient id="radial-gradient" cx="0.5" cy="0.5" r="0.5" gradientUnits="objectBoundingBox">
      <stop offset="0" stop-color="#828282"/>
      <stop offset="1" stop-color="#e2e2e2" stop-opacity="0.349"/>
    </radialGradient>
  </defs>
  <g id="Group_1031" data-name="Group 1031" transform="translate(-132 -476.5)">
    <path id="Path_1738" data-name="Path 1738" d="M.025,2.927,5.356,19.658a3.5,3.5,0,0,0,4.532,2.23l.5-.175a3.743,3.743,0,0,0,2.345-4.631L7.406.352A.505.505,0,0,0,6.752.03L.362,2.26a.538.538,0,0,0-.337.667" transform="matrix(0.788, -0.616, 0.616, 0.788, 609.561, 840.861)" fill="#263238"/>
    <path id="Path_1739" data-name="Path 1739" d="M.071,4.368l8.864,15.05a3.537,3.537,0,0,0,4.936,1.166l.457-.281a3.711,3.711,0,0,0,1.3-5.007L6.763.247A.511.511,0,0,0,6.051.079L.258,3.646a.536.536,0,0,0-.187.722" transform="matrix(0.788, -0.616, 0.616, 0.788, 613.65, 832.618)" fill="#263238"/>
    <path id="Path_1740" data-name="Path 1740" d="M.17,6.039l13,11.563a3.606,3.606,0,0,0,5.1-.383l.357-.4a3.639,3.639,0,0,0-.236-5.125L5.389.127a.519.519,0,0,0-.735.055L.136,5.3a.524.524,0,0,0,.034.738" transform="matrix(0.788, -0.616, 0.616, 0.788, 615.223, 822.838)" fill="#263238"/>
    <path id="Path_1727" data-name="Path 1727" d="M117.975,287.37l-61-6.18-26-60.77-20,5.15s14.349,64.232,31,74.16,74,12.36,74,12.36Z" transform="translate(136.592 469.288)" fill="#72a932"/>
    <path id="Path_1728" data-name="Path 1728" d="M74.1,282.629c0,15.453,12,27.81,27,27.81s28-12.357,28-27.81-13-27.81-28-27.81-27,12.357-27,27.81" transform="translate(165.467 486.39)" fill="#263238"/>
    <path id="Path_1729" data-name="Path 1729" d="M101.107,311.48a26.141,26.141,0,0,1-19-8.24,30.2,30.2,0,0,1-8-20.6,27.719,27.719,0,0,1,8-19.57,26.141,26.141,0,0,1,19-8.24,28.413,28.413,0,0,1,20,8.24,27.722,27.722,0,0,1,8,19.57,30.2,30.2,0,0,1-8,20.6,28.413,28.413,0,0,1-20,8.24m0-56.65a26.205,26.205,0,0,0-19,8.24,27.936,27.936,0,0,0,0,39.14,26.212,26.212,0,0,0,19,8.24,28.488,28.488,0,0,0,20-8.24c5.125-5.278,7-12.1,7-19.57s-1.875-14.293-7-19.57a28.481,28.481,0,0,0-20-8.24" transform="translate(165.459 486.378)" fill="#263238"/>
    <path id="Path_1730" data-name="Path 1730" d="M21.141,270.026c0,11.59,9.749,21.63,21,21.63s20-10.04,20-21.63-8.747-20.6-20-20.6-21,9.01-21,20.6" transform="translate(141.426 483.542)" fill="#263238"/>
    <path id="Path_1825" data-name="Path 1825" d="M1.719.253,22.1,0,20.376,136.119,0,136.372Z" transform="translate(474.727 769.892) rotate(-61)" fill="#72a932"/>
    <path id="Path_1731" data-name="Path 1731" d="M53.623,35.46C58.3,20.791,50.4,5.418,35.961,1.122S6.028,5.236,1.347,19.9,4.575,49.946,19.009,54.241,48.942,50.128,53.623,35.46" transform="matrix(0.788, -0.616, 0.616, 0.788, 428.975, 752.62)" fill="#263238"/>
    <path id="Path_1732" data-name="Path 1732" d="M27.166,55.447a27.012,27.012,0,0,1-8.124-1.129A26.3,26.3,0,0,1,3.02,41.022,27.507,27.507,0,0,1,1.356,19.935,28.6,28.6,0,0,1,15.023,3.412,27.373,27.373,0,0,1,36.015,1.131a26.3,26.3,0,0,1,16.022,13.3A27.513,27.513,0,0,1,53.7,35.514,28.6,28.6,0,0,1,40.035,52.037a27.787,27.787,0,0,1-12.868,3.409M27.888.078a27.692,27.692,0,0,0-12.833,3.4,28.522,28.522,0,0,0-13.63,16.48,27.436,27.436,0,0,0,1.66,21.03A26.238,26.238,0,0,0,19.064,54.248,27.3,27.3,0,0,0,40,51.971a28.527,28.527,0,0,0,13.633-16.48l.034.011-.034-.011a27.45,27.45,0,0,0-1.661-21.03A26.236,26.236,0,0,0,35.991,1.2a27,27,0,0,0-8.1-1.123" transform="matrix(0.788, -0.616, 0.616, 0.788, 428.916, 752.611)" fill="#263238"/>
    <path id="Path_1733" data-name="Path 1733" d="M40.217,26.6A20.2,20.2,0,0,0,26.97.842C16.143-2.379,4.52,3.927,1.011,14.928A20.2,20.2,0,0,0,14.256,40.681C25.084,43.9,36.706,37.6,40.217,26.6" transform="matrix(0.788, -0.616, 0.616, 0.788, 513.158, 792.868)" fill="#263238"/>
    <path id="Path_1736" data-name="Path 1736" d="M32.889,11.365A16.353,16.353,0,0,0,11.741.956,17.465,17.465,0,0,0,.8,22.562,16.354,16.354,0,0,0,21.943,32.972,17.463,17.463,0,0,0,32.889,11.365" transform="matrix(0.788, -0.616, 0.616, 0.788, 581.697, 825.529)" fill="#263238"/>
    <path id="Path_1737" data-name="Path 1737" d="M10.206,0,.555,15.718A3.594,3.594,0,0,0,1.688,20.7l.446.269a3.651,3.651,0,0,0,4.977-1.283L16.762,3.964Z" transform="matrix(0.788, -0.616, 0.616, 0.788, 588.467, 843.891)" fill="#263238"/>
    <path id="Path_1741" data-name="Path 1741" d="M131.707,238.472h91c5.9,0,11-4.22,11-10.3v-2.06c0-6.08-5.1-10.3-11-10.3h-91c-5.9,0-10,4.22-10,10.3v2.06c0,6.08,4.1,10.3,10,10.3" transform="translate(186.859 466.687)" fill="#263238"/>
    <path id="Path_1742" data-name="Path 1742" d="M63.115,187.213c0,13.052,10.326,23.69,23,23.69s23-10.638,23-23.69-10.328-23.69-23-23.69-23,10.638-23,23.69" transform="translate(160.451 440.695)" fill="#86c63a"/>
    <path id="Path_1743" data-name="Path 1743" d="M62.84,187.14c0,13.052,10.326,23.69,23,23.69s23-10.638,23-23.69-10.328-23.69-23-23.69-23,10.638-23,23.69" transform="translate(395.727 439.739)" fill="#86c63a"/>
    <path id="Path_1744" data-name="Path 1744" d="M190.984,108.306s-93.23-.835-108,82.4,64.307,84.942,87,86.519c10.291.714,32.573.348,52,0,43.01-.768,72.659-9.371,83-50.47,1.206-4.792,2.7-9.414,3-14.42,2.735-45.046-27.314-106.248-117-104.029" transform="translate(168.582 413.514)" fill="#91d63f"/>
    <path id="Path_1745" data-name="Path 1745" d="M254.018,210.444l-136,3.09c-14.208.229-25.778-12.146-26-26.78s10.791-26.552,25-26.78l136-2.06c14.208-.229,25.779,11.116,26,25.75s-10.792,26.552-25,26.78" transform="translate(173.986 438.065)" fill="#263238"/>
    <path id="Path_1746" data-name="Path 1746" d="M134.182,178.318c-.877,4.609-4.525,8.113-9,7.21a9.161,9.161,0,0,1-7-10.3c.877-4.61,5.525-7.082,10-6.18s6.877,4.661,6,9.27" transform="translate(185.385 443.411)" fill="#fff"/>
    <path id="Path_1747" data-name="Path 1747" d="M199.6,177.819c-.877,4.609-5.525,7.083-10,6.18s-6.877-4.661-6-9.27,5.525-8.112,10-7.21,6.877,5.691,6,10.3" transform="translate(214.963 442.88)" fill="#fff"/>
    <g id="Group_1003" data-name="Group 1003" transform="translate(351.566 476.5)">
      <rect id="Rectangle_745" data-name="Rectangle 745" width="8" height="41.2" transform="translate(9 13.39)" fill="#263238"/>
      <path id="Path_1748" data-name="Path 1748" d="M151.256,91.6c0,7.321,5.892,12.36,13,12.36s12-5.039,12-12.36-4.89-13.39-12-13.39a13.293,13.293,0,0,0-13,13.39" transform="translate(-151.256 -78.213)" fill="#86c63a"/>
    </g>
    <path id="Path_1750" data-name="Path 1750" d="M230.855,216.372c-.138-.081,1.39-2.49,3-7.21a76.693,76.693,0,0,0,4-18.54,160.01,160.01,0,0,0,1-19.57c-.113-2.5-.89-4.782-1-6.18a7.058,7.058,0,0,1,0-2.06,3.035,3.035,0,0,1,1,2.06c.2,1.392-.182,3.671,0,6.18a118.254,118.254,0,0,1,0,19.57,69.891,69.891,0,0,1-4,18.54,46.342,46.342,0,0,1-3,6.18c-.718,1.2-.956,1.058-1,1.03" transform="translate(236.711 440.377)" fill="#263238"/>
    <path id="Path_1751" data-name="Path 1751" d="M83.461,161.221a2.861,2.861,0,0,1,0,2.06c-.179.677-.81,2.113-1,3.09s.18,1.85,0,3.09c-.455,2.462-1.786,5.969-2,9.27-.166,3.3.689,6.5,1,10.3.345,3.8.271,7.077,1,10.3a66.089,66.089,0,0,0,3,8.24c.39,1.188.638,3.2,1,4.12s.708,1.425,1,2.06c.57,1.275,1.047,2.035,1,2.06s-.346-.82-1-2.06a22.247,22.247,0,0,1-1-2.06c-.4-.914-1.574-1.905-2-3.09-.939-2.335-1.18-6.035-2-9.27a68.928,68.928,0,0,1-2-10.3,67.927,67.927,0,0,1,0-10.3,79.208,79.208,0,0,1,1-9.27,32.477,32.477,0,0,1,1-3.09c.23-.975-.225-2.423,0-3.09a5.667,5.667,0,0,1,1-2.06" transform="translate(168.105 439.908)" fill="#263238"/>
    <path id="Path_1752" data-name="Path 1752" d="M87.291,254.215c0-.012-.366-.124,0,0,.4.139,1.317.79,2,1.03,1.457.529,3.337,1.094,6,2.06,1.348.5,3.368.431,5,1.03,1.648.568,3.064,1.438,5,2.06,3.886,1.189,8.029,2.916,13,4.12,2.472.653,5.3,1.349,8,2.06s6.07,1.406,9,2.06c5.85,1.384,11.343,1.98,18,3.09a332.189,332.189,0,0,0,44,3.09,332.155,332.155,0,0,0,44-3.09c6.657-1.108,13.15-1.706,19-3.09,2.93-.655,5.3-1.361,8-2.06s5.528-1.408,8-2.06c4.971-1.2,9.114-2.932,13-4.12,1.936-.62,4.352-1.494,6-2.06,1.632-.6,2.652-.534,4-1.03,2.663-.966,4.543-1.531,6-2.06.685-.24,1.6-.891,2-1.03.366-.124,0-.012,0,0s.356-.148,0,0c-.394.159-1.327.76-2,1.03-1.447.562-3.356,1.034-6,2.06-1.342.515-2.373,1.435-4,2.06-1.642.587-4.067.389-6,1.03-3.878,1.23-8.029,2.881-13,4.12-2.472.669-5.3,1.331-8,2.06s-5.065,1.39-8,2.06c-5.858,1.414-12.33,2.989-19,4.12a324.776,324.776,0,0,1-44,3.09,324.82,324.82,0,0,1-44-3.09c-6.669-1.132-13.144-2.706-19-4.12-2.935-.671-5.3-1.342-8-2.06s-5.528-1.39-8-2.06c-4.971-1.242-9.122-2.889-13-4.12-1.933-.641-3.358-.443-5-1.03-1.627-.625-3.658-1.545-5-2.06-2.644-1.026-4.555-1.5-6-2.06-.673-.271-1.607-.871-2-1.03-.358-.148,0,.012,0,0" transform="translate(171.275 485.964)" fill="#263238"/>
    <path id="Path_1753" data-name="Path 1753" d="M177.6,112.406c0,.013.223-.025,0,0-.268.024-.6.994-1,1.03-.865.093-2.36-.2-4,0a93.63,93.63,0,0,0-14,2.06,97.8,97.8,0,0,0-19,7.21c-7.067,3.363-15.046,7.527-22,13.39-6.912,5.921-12.454,13.06-17,19.57a101.885,101.885,0,0,0-10,18.54,112.376,112.376,0,0,0-5,13.39c-.5,1.619-.748,2.233-1,3.09-.111.392.074.763,0,1.03a6.41,6.41,0,0,0,0,1.03,6.411,6.411,0,0,1,0-1.03c.055-.271-.081-.63,0-1.03.205-.872.538-1.453,1-3.09.832-3.3,1.647-8.817,4-14.42s6.441-11.961,11-18.54a96.356,96.356,0,0,1,17-18.54,104.7,104.7,0,0,1,22-14.42,86.241,86.241,0,0,1,19-6.18,89.954,89.954,0,0,1,14-2.06c1.649-.157,3.13-.988,4-1.03.4-.006.731,0,1,0,.223,0,0-.014,0,0" transform="translate(169.963 415.594)" fill="#fff"/>
    <path id="Path_1754" data-name="Path 1754" d="M87.027,196.693c-.087.037-.324-1.18-1-3.09a36.2,36.2,0,0,1-2-7.21,55.132,55.132,0,0,1-1-8.24,4.548,4.548,0,0,1,1-3.09c.237.01-.941,5.277,0,11.33.9,6.056,3.223,10.215,3,10.3" transform="translate(169.539 446.666)" fill="#fff"/>
    <path id="Path_1755" data-name="Path 1755" d="M69.84,193.237a.794.794,0,0,0,0-1.03,19.972,19.972,0,0,1-2-3.09,14.961,14.961,0,0,1-2-9.27c.526-4.059,3.268-7.348,5-9.27a14.475,14.475,0,0,1,2-2.06,7.557,7.557,0,0,0,1-1.03c.084.112-1.418,1.1-3,3.09a19.6,19.6,0,0,0-4,9.27c-.494,3.869.972,6.959,2,9.27,1.024,2.343,1.109,4.035,1,4.12" transform="translate(161.727 442.912)" fill="#fff"/>
    <path id="Path_1756" data-name="Path 1756" d="M251.313,174.024c-.159.177-2.583-1.4-6-3.09-3.4-1.721-6.036-1.822-6-2.06-.006-.192,3.459-.758,7,1.03,3.556,1.757,5.151,4.006,5,4.12" transform="translate(243.254 444.615)" fill="#fff"/>
    <path id="Path_1757" data-name="Path 1757" d="M119.955,390.554a3.518,3.518,0,0,0,0-1.03c-.129-.241-.811.354-1,0-.435-.845-1.257-2.675-2-4.12-.38-.755-.545-1.154-1-2.06-.422-.936-.511-2.006-1-3.09-.989-2.17-1.92-4.4-3-7.21-.558-1.4-1.394-3.627-2-5.15-.556-1.546-1.4-2.457-2-4.12-1.249-3.312-1.752-7.551-3-11.33-2.279-7.632-5.037-15.731-7-24.72-1.921-9-2.841-17.858-4-25.75-1.07-7.9-2.535-14.583-3-20.6-.282-3,.145-5.848,0-8.24-.163-2.392-.953-4.493-1-6.18-.054-1.633.031-3.166,0-4.12-.006-.4,0-.756,0-1.03,0-.228-.013,0,0,0s-.025-.226,0,0c.023.274-.036.627,0,1.03.065.953-.112,2.49,0,4.12.093,1.682.8,3.794,1,6.18.185,2.386.683,5.243,1,8.24.532,6,.893,12.715,2,20.6,1.194,7.871,3.083,16.769,5,25.75,1.959,8.968,3.763,17.1,6,24.72,1.226,3.776,2.778,8.02,4,11.33.582,1.666.459,2.573,1,4.12.59,1.526,1.459,2.719,2,4.12,1.047,2.814,2.049,6.058,3,8.24.467,1.092.6,2.148,1,3.09.432.917,1.639,1.3,2,2.06.688,1.471.6,3.26,1,4.12.163.367.888-.25,1,0a3.468,3.468,0,0,1,0,1.03" transform="translate(172.611 489.703)" fill="#fff"/>
    <path id="Path_1758" data-name="Path 1758" d="M78.08,266.336c-.015.214-5.147.428-11,0s-10.015-.814-10-1.03,4.144-.431,10,0,11.015.817,11,1.03" transform="translate(157.486 491.353)" fill="#fff"/>
    <path id="Path_1759" data-name="Path 1759" d="M156.338,387.775c-.009.052.089-.841-1-1.03a44.907,44.907,0,0,1-11-3.09c-2.359-1.168-5.518-2.34-8-4.12-2.468-1.8-4.134-4.288-6-6.18-1.84-1.92-3.837-3.5-5-5.15a22.69,22.69,0,0,1-2-4.12,14.368,14.368,0,0,1-1-2.06c.124-.076,1.57,1.987,4,5.15,1.2,1.588,2.16,4.314,4,6.18,1.869,1.838,4.569,3.371,7,5.15a52.7,52.7,0,0,0,7,4.12c2.328,1.152,4.142,2.461,6,3.09,3.711,1.285,6.028,1.915,6,2.06" transform="translate(187.229 539.862)" fill="#fff"/>
    <path id="Path_1760" data-name="Path 1760" d="M212.424,154.514c0,.216-17.98,1.03-40,1.03s-39-.814-39-1.03,16.971,0,39,0,40-.216,40,0" transform="translate(192.143 436.315)" fill="#fff"/>
    <path id="Path_1761" data-name="Path 1761" d="M160.811,222.165c0,.027.445-.048,0,0-.532.048-1.229-.069-2,0-.843.073-1.8,1.01-3,1.03s-2.485.049-4,0c-3.035-.007-7.01-.594-11-1.03a113.328,113.328,0,0,1-13-2.06,123.988,123.988,0,0,1-13-4.12,85.362,85.362,0,0,1-9-4.12c-1.377-.655-2.934-1.482-4-2.06s-2.276-1.6-3-2.06c-.659-.415-.543-.742-1-1.03-.377-.246-1.013.024-1,0a1.4,1.4,0,0,1,1,0c.476.252.314.666,1,1.03.743.413,1.917,1.528,3,2.06s2.613.411,4,1.03c2.735,1.318,6.25,2.721,10,4.12a113.351,113.351,0,0,0,12,4.12,124.26,124.26,0,0,0,13,2.06c3.961.472,7.982.952,11,1.03,1.511.084,2.8-.014,4,0s2.155.028,3,0c.772-.01,1.465.006,2,0,.445,0,0-.027,0,0" transform="translate(175.756 462.394)" fill="#fff"/>
    <path id="Path_1762" data-name="Path 1762" d="M265.84,262.524c0,.012.234-.1,0,0-.276.106-.575-.163-1,0-.98.36-2.287,1.432-4,2.06-1.755.652-4.457,1.292-7,2.06s-4.763,1.23-8,2.06c-1.614.44-3.24,1.581-5,2.06s-4.089.572-6,1.03c-3.814.953-7.665,1.217-12,2.06-8.7,1.511-18.836,3.443-29,4.12a257.565,257.565,0,0,1-28,0c-4.4-.289-9.1-.566-13-1.03-1.952-.213-3.2-.784-5-1.03s-4.345.234-6,0c-3.311-.416-5.388-1.6-8-2.06-2.615-.442-5.181-.6-7-1.03-1.774-.407-2.983-.8-4-1.03-.441-.109-.714.072-1,0a6.341,6.341,0,0,0-1,0,6.159,6.159,0,0,1,1,0c.292.052.554-.078,1,0,1.022.2,2.214.684,4,1.03,1.825.379,4.382.629,7,1.03s5.69.648,9,1.03c1.653.216,3.2.793,5,1.03s3.054-.2,5,0c3.893.436,8.608.76,13,1.03a268.613,268.613,0,0,0,28,0c10.134-.676,20.318-1.622,29-3.09,4.328-.821,8.188-2.167,12-3.09,1.909-.442,4.237-.575,6-1.03s3.386-.608,5-1.03c3.239-.8,5.455-2.349,8-3.09s5.233-1.453,7-2.06c1.732-.569,3.008-.7,4-1.03.435-.133.716.087,1,0,.243-.072,0-.012,0,0" transform="translate(186.727 490.015)" fill="#fff"/>
    <g id="Group_1005" data-name="Group 1005" transform="translate(259.404 709.245)">
      <g transform="matrix(1, 0, 0, 1, -127.4, -232.75)" filter="url(#Path_1763)">
        <path id="Path_1763-2" data-name="Path 1763" d="M92.109,271.6s-3.018,188.767,104,192.609,107-190.549,107-190.549,3.629-13.678-3-18.54c-11.46-8.408-39.047-20.31-102-19.57-52.51.617-81.129,8.984-96,16.48-12.245,6.171-10,19.57-10,19.57" transform="translate(35.46 -2.77)" fill="url(#linear-gradient)"/>
      </g>
      <ellipse id="Ellipse_94" data-name="Ellipse 94" cx="83.5" cy="13.905" rx="83.5" ry="13.905" transform="translate(22.162 0.033)" fill="#68992d"/>
      <g id="Group_1004" data-name="Group 1004" transform="translate(55.986 62.729)">
        <path id="Path_1764" data-name="Path 1764" d="M228.174,330.721c-1.891,26.656-24.12,47.267-50,45.32s-45.891-25.873-44-52.53a47.743,47.743,0,0,1,51-44.29c25.88,1.949,44.893,24.843,43,51.5" transform="translate(-127.998 -279.088)" fill="#263238"/>
        <path id="Path_1765" data-name="Path 1765" d="M209.311,323.437c-1.378,19.424-17.142,34.381-36,32.96s-33.38-18.686-32-38.11a34.369,34.369,0,0,1,37-31.93c18.858,1.419,32.378,17.656,31,37.08" transform="translate(-122.135 -272.834)" fill="#fff"/>
        <path id="Path_1766" data-name="Path 1766" d="M187.131,376.693a8.578,8.578,0,0,0-1,0c-.852.017-2.374,1.129-4,1.03-3.25-.008-8.41-1.366-14-3.09a51.715,51.715,0,0,1-9-3.09,56.521,56.521,0,0,1-9-6.18c-6.063-4.911-11.369-12.166-15-20.6a52.738,52.738,0,0,1-4-24.72,63.338,63.338,0,0,1,2-11.33c1-3.382,1.685-6.585,3-9.27a45.793,45.793,0,0,1,8-11.33c1.041-1.291,2.406-2.461,3-3.09.622-.6.978-1.055,1-1.03.072.076-1.9,1.6-4,4.12a49.457,49.457,0,0,0-7,11.33,63.52,63.52,0,0,0-3,9.27,65.455,65.455,0,0,0-2,11.33,54.376,54.376,0,0,0,4,24.72,52.042,52.042,0,0,0,15,19.57,58.382,58.382,0,0,0,9,6.18,63.268,63.268,0,0,0,9,4.12,44.324,44.324,0,0,0,13,2.06c3.224.143,5-.107,5,0" transform="translate(-130.956 -274.59)" fill="#fff"/>
        <path id="Path_1767" data-name="Path 1767" d="M-.951,43.762s4.308-2.171,6-3.09c.527-.286.476-.739,1-1.03.27-.15,1.28-.787,1-1.03-2.851-2.473-5.688-5.685-7-9.27a21.827,21.827,0,0,1-1-9.27,22.04,22.04,0,0,1,7-14.42c3.065-3,6.833-4.431,11-5.15a20.122,20.122,0,0,1,18,5.15c3.655,3.346,5.223,7.381,6,12.36,1.216,7.789-.484,15.154-6,20.6-3.355,3.312-7.376,4.589-12,5.15m11-21.63c.019-.431.272-.75,0-1.03-1.855-1.908-4.143-4.274-6-6.18-.186-.19.22.144,0,0a.751.751,0,0,0-1,0,.853.853,0,0,0,0,1.03c.111.2-.158-.162,0,0,1.579,1.626,3.423,3.521,5,5.15a1.452,1.452,0,0,1,0,2.06c-.718.694-1.291,1.356-2,2.06-.989.981-2.035,2.085-3,3.09-.386.4-.283.68,0,1.03.31.384.556.245,1,0,.2-.109-.158-.868,0-1.03,1.219-1.25,2.78-1.841,4-3.09.718-.735,1.284-1.323,2-2.06.168-.173.036-.762,0-1.03m-21-7.21c-.226.037.163-.165,0,0-.455.46-1.548.566-2,1.03-1.473,1.513-2.535,3.629-4,5.15-.855.888-.856,1.185,0,2.06.325.332.674.7,1,1.03,1.58,1.605,3.412,3.554,5,5.15a.609.609,0,0,0,1,0c.314-.316.325-.607,0-1.03-.06-.078.069-.96,0-1.03-1.518-1.547-3.473-2.582-5-4.12-.806-.812-.807-1.224,0-2.06,1.516-1.57,3.484-3.58,5-5.15.177-.184-.1.241,0,0,.181-.45-.53-1.037-1-1.03m10,0c-.441-.044-.811-.426-1,0-1.628,3.671-2.37,7.66-4,11.33-.34.765-.7,1.28-1,2.06-.177.452-.348.832,0,1.03.41.233.712.371,1,0,.128-.165-.086-.837,0-1.03,1.861-4.189,4.143-8.169,6-12.36a2.437,2.437,0,0,0,0-1.03c-.019-.452-.5.017-1,0" transform="translate(33.126 26.41)" fill="url(#linear-gradient-2)"/>
      </g>
    </g>
    <path id="Path_1768" data-name="Path 1768" d="M19.255,1.856c-.064.125-1.131-.412-2.981-.81a16.437,16.437,0,0,0-7.337.18,17.065,17.065,0,0,0-6.62,3.382C.838,5.854.114,6.848,0,6.767A7.5,7.5,0,0,1,1.965,4.2,15.54,15.54,0,0,1,8.769.478a14.874,14.874,0,0,1,7.649.038,6.9,6.9,0,0,1,2.838,1.339" transform="matrix(0.788, -0.616, 0.616, 0.788, 527.123, 790.58)" fill="#fff"/>
    <g id="Group_1006" data-name="Group 1006" transform="translate(132 651.522)">
      <path id="Path_1775" data-name="Path 1775" d="M5.1,221.179c0,9.469,7.806,17.51,17,17.51s16-8.041,16-17.51-6.806-16.48-16-16.48-17,7.011-17,16.48" transform="translate(2.471 -187.113)" fill="#263238"/>
      <path id="Path_1776" data-name="Path 1776" d="M26.311,224.038l14-12.36c1.505-1.309,1.271-3.6,0-5.15h0c-1.271-1.55-3.495-2.339-5-1.03l-14,12.36Z" transform="translate(12.255 -194.092)" fill="#263238"/>
      <path id="Path_1777" data-name="Path 1777" d="M24.621,213.653v-17.51c0-2.03-1.028-3.09-3-3.09h-1c-1.97,0-3,1.06-3,3.09v17.51c0,.292-.285,1.03,0,1.03h7c.285,0,0-.738,0-1.03" transform="translate(7.946 -192.977)" fill="#263238"/>
      <path id="Path_1778" data-name="Path 1778" d="M20.445,213.391l-4-17.51c-.43-1.98-2.078-3.533-4-3.09l-1,1.03a3.609,3.609,0,0,0-3,4.12l4,17.51c.063.285.722.063,1,0l6-1.03c.278-.064,1.063-.744,1-1.03" transform="translate(4.121 -192.715)" fill="#263238"/>
      <path id="Path_1779" data-name="Path 1779" d="M15.844,213.735l-9-15.45a3.573,3.573,0,0,0-5-1.03h0c-1.706,1.014-1.985,3.393-1,5.15l8,15.45c.143.253.753.147,1,0l6-3.09c.247-.145.143-.777,0-1.03" transform="translate(-0.278 -185.849)" fill="#263238"/>
    </g>
    <path id="Path_1780" data-name="Path 1780" d="M37.088,250.994c-.183.1-3.126-3.809-6-9.27s-5.183-10.2-5-10.3,3.126,3.807,6,9.27,5.183,10.2,5,10.3" transform="translate(139.479 476.824)" fill="#fff"/>
    <path id="Path_1781" data-name="Path 1781" d="M46.514,254.9c-.061.126-1.165-.6-3-1.03a19.149,19.149,0,0,0-8,0,13.8,13.8,0,0,0-6,3.09c-1.445,1.24-1.891,2.144-2,2.06a18.583,18.583,0,0,1,2-2.06c1.4-1.4,3.077-3.391,6-4.12a16.347,16.347,0,0,1,8,0,5.941,5.941,0,0,1,3,2.06" transform="translate(144.053 485.274)" fill="#fff"/>
    <ellipse id="Ellipse_100" data-name="Ellipse 100" cx="129.5" cy="20.5" rx="129.5" ry="20.5" transform="translate(228.023 974.5)" opacity="0.68" fill="url(#radial-gradient)"/>
    <rect id="Rectangle_770" data-name="Rectangle 770" width="66" height="6" rx="3" transform="translate(326 638)" fill="#fff"/>
  </g>
</svg>
