<svg xmlns="http://www.w3.org/2000/svg" xmlns:xlink="http://www.w3.org/1999/xlink" width="660.65" height="586.726" viewBox="0 0 660.65 586.726">
  <defs>
    <linearGradient id="linear-gradient" x1="0.5" x2="0.5" y2="1.727" gradientUnits="objectBoundingBox">
      <stop offset="0" stop-color="#9ce644"/>
      <stop offset="1" stop-color="#4e7322"/>
    </linearGradient>
    <filter id="Path_1763" x="118.404" y="268.757" width="230.152" height="246.748" filterUnits="userSpaceOnUse">
      <feOffset dy="3" input="SourceAlpha"/>
      <feGaussianBlur stdDeviation="3" result="blur"/>
      <feFlood flood-opacity="0.161"/>
      <feComposite operator="in" in2="blur"/>
      <feComposite in="SourceGraphic"/>
    </filter>
    <linearGradient id="linear-gradient-2" x1="0.5" x2="0.5" y2="1.132" gradientUnits="objectBoundingBox">
      <stop offset="0" stop-color="#a0ea47"/>
      <stop offset="1" stop-color="#4e9000"/>
    </linearGradient>
  </defs>
  <g id="robo-ask" transform="translate(21939.273 -6530.325)">
    <path id="Path_2093" data-name="Path 2093" d="M80.405,386.895,65.489,376.631s-8.617,12.525-21.788,3.793a14.651,14.651,0,0,1-6.388-15.747,16.223,16.223,0,0,1,9.375-11.35c5.4-2.431,13.554-2.407,22.389,6.281l23.141-33.635-14.75-10.149-13.555,19.7S39.546,326.64,23.86,349.439c-15.01,21.812,1.067,40.338,9.44,46.1,6.4,4.4,29.281,17.866,47.106-8.644" transform="translate(-21911.48 6639.493)" fill="#59aca7"/>
    <rect id="Rectangle_828" data-name="Rectangle 828" width="16.97" height="18.17" transform="translate(-21829.422 6948.267) rotate(-55.468)" fill="#59aca7"/>
    <path id="Path_2116" data-name="Path 2116" d="M107.906,401.376l7.921-2.089s-1.755-6.652,5.126-8.593a6.626,6.626,0,0,1,7.286,2.454,7.34,7.34,0,0,1,1.127,6.564c-.758,2.57-3.172,5.359-8.759,5.828l4.712,17.859,7.833-2.065-2.76-10.463s10.236-5.737,7.042-17.844c-3.056-11.583-14.152-11.533-18.6-10.361-3.4.9-14.765,4.775-10.93,18.71" transform="translate(-21875.379 6666.271)" fill="#59aca7"/>
    <path id="Path_1963" data-name="Path 1963" d="M211.951,44.9a52.614,52.614,0,0,1,12.834-5.578l2.645-12.7,21.464-.376,3.088,12.6A52.517,52.517,0,0,1,265,43.966l10.848-7.111L291.3,51.766l-6.724,11.089a52.549,52.549,0,0,1,5.578,12.837l12.7,2.645L303.23,99.8l-12.6,3.091A52.6,52.6,0,0,1,285.5,115.91l7.11,10.849L277.7,142.2l-11.089-6.724a52.574,52.574,0,0,1-12.837,5.577l-2.645,12.7-21.462.376-3.09-12.6a52.54,52.54,0,0,1-13.023-5.123L202.71,143.52l-15.443-14.911,6.724-11.089a52.624,52.624,0,0,1-5.578-12.835l-12.7-2.645-.378-21.462,12.6-3.091a52.692,52.692,0,0,1,5.123-13.022l-7.11-10.848,14.91-15.443Zm11.441,28.593a23.028,23.028,0,1,0,32.563-.573,23.027,23.027,0,0,0-32.563.573" transform="translate(-21847.844 6522.592)" fill="#f5f5f5"/>
    <path id="Path_1964" data-name="Path 1964" d="M143.448,10.747a30.233,30.233,0,0,1,7.392-3.213L152.363.216,164.725,0l1.78,7.257a30.26,30.26,0,0,1,7.5,2.952l6.248-4.1,8.9,8.589-3.873,6.387a30.241,30.241,0,0,1,3.213,7.393l7.316,1.523.218,12.362-7.258,1.78a30.328,30.328,0,0,1-2.952,7.5l4.095,6.249-8.586,8.9-6.388-3.874a30.219,30.219,0,0,1-7.393,3.213l-1.523,7.317-12.362.216-1.78-7.258a30.323,30.323,0,0,1-7.5-2.951l-6.248,4.095-8.9-8.588,3.873-6.387a30.251,30.251,0,0,1-3.213-7.395l-7.316-1.522L122.358,31.3l7.258-1.78a30.335,30.335,0,0,1,2.951-7.5l-4.095-6.249,8.588-8.9Zm6.59,16.468a13.264,13.264,0,1,0,18.755-.33,13.262,13.262,0,0,0-18.755.33" transform="translate(-21988.613 6545.375)" fill="#b6bdbf"/>
    <path id="Path_2038" data-name="Path 2038" d="M424.555,174.264a30.343,30.343,0,0,1,7.392-3.213l1.523-7.316,12.362-.218,1.78,7.258a30.278,30.278,0,0,1,7.5,2.951l6.248-4.1,8.9,8.591-3.873,6.385A30.226,30.226,0,0,1,469.6,192l7.317,1.522.216,12.364-7.258,1.778a30.27,30.27,0,0,1-2.951,7.5l4.095,6.248-8.586,8.9-6.388-3.874a30.277,30.277,0,0,1-7.393,3.214l-1.523,7.316-12.362.216-1.78-7.257a30.385,30.385,0,0,1-7.5-2.952l-6.248,4.094-8.9-8.588,3.873-6.387A30.252,30.252,0,0,1,411,208.7l-7.317-1.522-.216-12.362,7.258-1.778a30.363,30.363,0,0,1,2.951-7.5l-4.095-6.249,8.588-8.894Zm6.59,16.468A13.264,13.264,0,1,0,449.9,190.4a13.262,13.262,0,0,0-18.755.328" transform="translate(-21755.752 6578.009)" fill="#b6bdbf"/>
    <path id="Path_1977" data-name="Path 1977" d="M465.89,599.781l-199.345-.118a43.423,43.423,0,0,1-43.4-43.431l.1-499.761a43.423,43.423,0,0,1,43.448-43.416l199.345.117a43.425,43.425,0,0,1,43.4,43.433l-.1,499.763a43.422,43.422,0,0,1-43.448,43.414" transform="translate(-21828.543 6517.27)" fill="#263238"/>
    <path id="Path_1979" data-name="Path 1979" d="M462.028,25.765l-38.649-.022a9.6,9.6,0,0,0-9.386,9.806l0,7.01a9.6,9.6,0,0,1-9.386,9.806l-75.337-.045a9.609,9.609,0,0,1-9.382-9.816V35.492a9.611,9.611,0,0,0-9.384-9.816l-13.593-.008-33.827-.02a30.41,30.41,0,0,0-30.429,30.405l-.1,487.8a30.41,30.41,0,0,0,30.392,30.419l198.948.116a30.414,30.414,0,0,0,30.429-30.405l.1-487.8a30.413,30.413,0,0,0-30.394-30.418" transform="translate(-21824.744 6522.354)" fill="#fff"/>
    <path id="Path_1980" data-name="Path 1980" d="M492.385,128.3V55.619a30.405,30.405,0,0,0-30.379-29.855l-38.65-.022a9.6,9.6,0,0,0-9.386,9.8l0,7.011a9.6,9.6,0,0,1-9.385,9.806l-75.337-.045a9.611,9.611,0,0,1-9.384-9.816l0-7.011a9.611,9.611,0,0,0-9.385-9.816l-13.592-.008-33.829-.02a30.412,30.412,0,0,0-30.429,30.405l-.014,72.454h259.77Z" transform="translate(-21824.721 6522.354)" fill="#ebebeb"/>
    <path id="Path_1981" data-name="Path 1981" d="M310.9,155.648a31.486,31.486,0,1,1-31.486-31.419A31.452,31.452,0,0,1,310.9,155.648" transform="translate(-21818.539 6562.149)" fill="#e0e0e0"/>
    <path id="Path_1982" data-name="Path 1982" d="M259.888,152.414l8.241-.7,20.134,3.391,2.377,15.147-.338,1.763a31.652,31.652,0,0,1-29.845.685Z" transform="translate(-21813.711 6573.245)" fill="#455a64"/>
    <path id="Path_1983" data-name="Path 1983" d="M277.035,153.992a10.77,10.77,0,0,1,10.442,4.59,58.572,58.572,0,0,1,3.741,5.947c-3.272,3.561-5.939,6.272-10.494,7.852Z" transform="translate(-21806.789 6574.118)" fill="#455a64"/>
    <path id="Path_1984" data-name="Path 1984" d="M262.81,152.214s-5.448.667-7.563,5.312-2.6,6.1-2.6,6.1c2.821,3.387,6.4,7.4,10.794,8.9,0,0,1-11.7,1.134-15.008.146-3.627.288-5.415-1.769-5.312" transform="translate(-21816.633 6573.444)" fill="#455a64"/>
    <path id="Path_1985" data-name="Path 1985" d="M264.271,132.662a14.912,14.912,0,0,1,11.538-5.731,16.016,16.016,0,0,1,5.594,1.009,8.273,8.273,0,0,1,4.716,3.113,13.817,13.817,0,0,1,2.713,6.318,38.548,38.548,0,0,1,.341,7.122,12.974,12.974,0,0,1-2.225,6.69l-6.053,1.049a38.15,38.15,0,0,1-9.987-.538,12.829,12.829,0,0,1-8.164-5.356c-2.423-3.956-1.416-10.088,1.526-13.676" transform="translate(-21813.107 6563.239)" fill="#263238"/>
    <path id="Path_1986" data-name="Path 1986" d="M259.271,144.614a4.5,4.5,0,0,1,2.049-3.4,3.255,3.255,0,0,1,3.819.33l.952,1.131a3.9,3.9,0,0,1,2.247,3.93,4.275,4.275,0,0,1-2.969,3.5,4.744,4.744,0,0,1-4.511-1.088,5.3,5.3,0,0,1-1.588-4.4" transform="translate(-21813.973 6568.819)" fill="#263238"/>
    <path id="Path_1987" data-name="Path 1987" d="M260.27,148.253a2.033,2.033,0,0,1-.326-1.2,5.449,5.449,0,0,1,1.385-2.715,8.184,8.184,0,0,1,2.424-1.94c.71-.38,1.2-.519,1.182-.568a3.286,3.286,0,0,0-1.273.38,7.307,7.307,0,0,0-2.56,1.936,7.18,7.18,0,0,0-.978,1.485,3.282,3.282,0,0,0-.39,1.415,1.689,1.689,0,0,0,.272.957c.136.2.253.264.264.251" transform="translate(-21813.773 6569.251)" fill="#455a64"/>
    <path id="Path_1988" data-name="Path 1988" d="M279.146,163.072s-.032-5.613-.032-5.6,4.933-.543,6.3-6.854c.678-3.139.8-8.339.769-12.6-.031-3.832-3.3-9.052-8.046-9.069l-2.105-.244-8.07,3.2a2.245,2.245,0,0,0-2.132,2.162l-.241,26.958,3.693,5.18a5.439,5.439,0,0,0,9.866-3.132" transform="translate(-21811.41 6563.956)" fill="#ffbe9d"/>
    <path id="Path_1989" data-name="Path 1989" d="M272.954,143.6a1.333,1.333,0,0,1,.466-.828,1.378,1.378,0,0,1,1.669-.1,1.839,1.839,0,0,1,.7,1.727,1.677,1.677,0,0,1-1.2.693,1.705,1.705,0,0,1-.225.007,1.5,1.5,0,0,1-1.013-.4,1.333,1.333,0,0,1-.4-1.1" transform="translate(-21808.441 6569.499)" fill="#eb996e"/>
    <path id="Path_1990" data-name="Path 1990" d="M278.656,138.7a.818.818,0,0,1-.834.78.783.783,0,0,1-.8-.782.821.821,0,0,1,.834-.782.785.785,0,0,1,.8.783" transform="translate(-21806.797 6567.674)" fill="#263238"/>
    <path id="Path_1991" data-name="Path 1991" d="M280.069,137.3c-.108.1-.7-.39-1.583-.437s-1.55.358-1.64.246c-.045-.051.07-.237.362-.427a2.255,2.255,0,0,1,1.319-.327,2.162,2.162,0,0,1,1.254.48c.26.222.34.42.288.465" transform="translate(-21806.869 6567.041)" fill="#263238"/>
    <path id="Path_1992" data-name="Path 1992" d="M275.2,143.878a5.774,5.774,0,0,1,1.443-.18c.226-.01.441-.044.487-.194a1.134,1.134,0,0,0-.112-.674q-.274-.832-.571-1.745a28.91,28.91,0,0,1-1.246-4.551,29.383,29.383,0,0,1,1.61,4.44c.189.612.371,1.195.543,1.753a1.3,1.3,0,0,1,.067.887.566.566,0,0,1-.387.307,1.48,1.48,0,0,1-.385.032,5.742,5.742,0,0,1-1.449-.077" transform="translate(-21807.535 6567.117)" fill="#263238"/>
    <path id="Path_1993" data-name="Path 1993" d="M277.644,149.986a16.288,16.288,0,0,1-8.421-2.743s2.034,4.538,8.453,4.292Z" transform="translate(-21809.941 6571.439)" fill="#eb996e"/>
    <path id="Path_1994" data-name="Path 1994" d="M273.376,142.1c.142,0,.091.953.873,1.675s1.8.672,1.8.807c.01.06-.237.173-.668.16a2.38,2.38,0,0,1-1.508-.619,2.064,2.064,0,0,1-.671-1.4c-.017-.4.1-.632.17-.622" transform="translate(-21808.336 6569.362)" fill="#263238"/>
    <path id="Path_1995" data-name="Path 1995" d="M279.951,134.907c-.16.206-.827.027-1.617.048-.793,0-1.456.194-1.618-.008-.072-.1.025-.3.31-.5a2.514,2.514,0,0,1,2.607-.032c.288.2.389.4.319.5" transform="translate(-21806.928 6566.119)" fill="#263238"/>
    <path id="Path_1996" data-name="Path 1996" d="M271.306,138.64a.819.819,0,0,0,.776.839.786.786,0,0,0,.858-.723.82.82,0,0,0-.775-.839.784.784,0,0,0-.859.723" transform="translate(-21809.102 6567.673)" fill="#263238"/>
    <path id="Path_1997" data-name="Path 1997" d="M270.546,137.038c.1.108.729-.34,1.61-.321s1.52.469,1.618.362c.048-.046-.053-.24-.331-.451a2.269,2.269,0,0,0-1.293-.423,2.18,2.18,0,0,0-1.284.389c-.274.2-.369.394-.32.444" transform="translate(-21809.414 6566.984)" fill="#263238"/>
    <path id="Path_1998" data-name="Path 1998" d="M270.189,135.708c.17.2.855.007,1.672.011.818-.021,1.509.161,1.672-.045.072-.1-.034-.3-.333-.5a2.53,2.53,0,0,0-1.355-.351,2.5,2.5,0,0,0-1.34.378c-.292.2-.39.406-.316.5" transform="translate(-21809.563 6566.427)" fill="#263238"/>
    <path id="Path_1999" data-name="Path 1999" d="M267.874,140.673c.025-.474-.463-1.623-.928-1.721-1.242-.264-3.506-.286-3.7,2.887-.267,4.34,4.154,3.713,4.169,3.588.013-.1.376-3.116.462-4.754" transform="translate(-21812.361 6568.049)" fill="#ffbe9d"/>
    <path id="Path_2000" data-name="Path 2000" d="M265.956,143.354c-.018-.015-.079.049-.211.1a.757.757,0,0,1-.567-.024,1.869,1.869,0,0,1-.764-1.731,2.5,2.5,0,0,1,.278-1.07.876.876,0,0,1,.606-.546.387.387,0,0,1,.434.234c.051.125.018.211.041.219s.1-.067.074-.248a.492.492,0,0,0-.154-.282.576.576,0,0,0-.413-.136,1.066,1.066,0,0,0-.832.625,2.576,2.576,0,0,0-.338,1.193,1.966,1.966,0,0,0,.991,1.941.814.814,0,0,0,.7-.072c.142-.1.17-.2.156-.2" transform="translate(-21812.008 6568.463)" fill="#eb996e"/>
    <path id="Path_2001" data-name="Path 2001" d="M266.416,143.255l1.1,1.144c4.771-4.558,14.1-15.968,13.575-15.289a13.928,13.928,0,0,0-6.816-.738c-3.547.6-10.276,2.375-10.174,6.551a21.748,21.748,0,0,0,2.31,8.332" transform="translate(-21812.01 6563.758)" fill="#263238"/>
    <path id="Path_2002" data-name="Path 2002" d="M261.249,142.327a1.144,1.144,0,0,1,.066-.251,4.57,4.57,0,0,1,.3-.684,6.314,6.314,0,0,1,1.816-2.041,11.908,11.908,0,0,1,3.659-1.756c1.456-.473,3.1-.841,4.705-1.53a21.309,21.309,0,0,0,4.3-2.4,22.21,22.21,0,0,0,3.033-2.645,23.833,23.833,0,0,0,1.753-2.077l.437-.6a1.25,1.25,0,0,1,.163-.2,1.049,1.049,0,0,1-.126.227c-.09.143-.219.358-.4.623a19.963,19.963,0,0,1-1.708,2.134,21.222,21.222,0,0,1-3.028,2.7,20.837,20.837,0,0,1-4.332,2.441,47.7,47.7,0,0,1-4.728,1.52,12.091,12.091,0,0,0-3.627,1.687,6.515,6.515,0,0,0-1.835,1.957c-.32.554-.417.9-.439.893" transform="translate(-21813.162 6563.728)" fill="#455a64"/>
    <path id="Path_2003" data-name="Path 2003" d="M262.152,142.743a2.292,2.292,0,0,1,.168-.949,4.449,4.449,0,0,1,1.634-2.042,9.861,9.861,0,0,1,3.63-1.419,21.519,21.519,0,0,0,4.509-1.429,19.023,19.023,0,0,0,4.02-2.476,19.545,19.545,0,0,0,2.757-2.7,20.6,20.6,0,0,0,1.536-2.107l.369-.608a1.061,1.061,0,0,1,.142-.2,1,1,0,0,1-.1.226c-.087.166-.2.375-.334.632a17.627,17.627,0,0,1-1.488,2.162,18.7,18.7,0,0,1-6.806,5.282,21.012,21.012,0,0,1-4.555,1.426,9.959,9.959,0,0,0-3.585,1.348,4.488,4.488,0,0,0-1.644,1.946,5.275,5.275,0,0,0-.25.918" transform="translate(-21812.799 6563.996)" fill="#455a64"/>
    <path id="Path_2004" data-name="Path 2004" d="M260.381,169.054a29.734,29.734,0,0,1-.146-4.149,29.717,29.717,0,0,1,.146-4.149,29.86,29.86,0,0,1,.145,4.149,29.877,29.877,0,0,1-.145,4.149" transform="translate(-21813.57 6576.894)" fill="#263238"/>
    <path id="Path_2005" data-name="Path 2005" d="M282.024,169.062a8.761,8.761,0,0,1,.049-1.474,16.548,16.548,0,0,0-.122-3.519,17.446,17.446,0,0,0-1.011-3.38,8.445,8.445,0,0,1-.508-1.388,6.748,6.748,0,0,1,.7,1.311,14.031,14.031,0,0,1,1.109,3.412,13.432,13.432,0,0,1,.039,3.579,6.5,6.5,0,0,1-.254,1.458" transform="translate(-21805.42 6576.307)" fill="#263238"/>
    <path id="Path_2006" data-name="Path 2006" d="M426.534,193.781h-107.3a9.647,9.647,0,0,1-9.647-9.648V139.077l-11.829-10.5H426.534a9.647,9.647,0,0,1,9.648,9.648v45.91a9.647,9.647,0,0,1-9.648,9.648" transform="translate(-21798.424 6563.904)" fill="#ebebeb"/>
    <path id="Path_2033" data-name="Path 2033" d="M390.844,180.335c0,.2-5.125.365-11.446.365s-11.448-.163-11.448-.365,5.125-.365,11.448-.365,11.446.163,11.446.365" transform="translate(-21770.088 6584.651)" fill="#e0e0e0"/>
    <path id="Path_2039" data-name="Path 2039" d="M388.372,182.407a.369.369,0,0,1-.254-.108L385.9,179.98a.351.351,0,1,1,.507-.486l1.965,2.058,4.3-4.378a.351.351,0,0,1,.5.491l-4.558,4.636a.355.355,0,0,1-.251.105" transform="translate(-21762.879 6583.479)" fill="#67982d"/>
    <path id="Path_2040" data-name="Path 2040" d="M390.106,182.355H390.1l-.407-.01a.352.352,0,0,1-.343-.361.371.371,0,0,1,.359-.341l.254.007,4.451-4.53a.352.352,0,0,1,.5.493l-4.558,4.636a.355.355,0,0,1-.251.105" transform="translate(-21761.451 6583.458)" fill="#67982d"/>
    <path id="Path_2094" data-name="Path 2094" d="M390.844,306.006c0,.2-5.125.365-11.446.365s-11.448-.163-11.448-.365,5.125-.365,11.448-.365,11.446.163,11.446.365" transform="translate(-21770.088 6635.381)" fill="#e0e0e0"/>
    <path id="Path_2095" data-name="Path 2095" d="M388.372,308.077h0a.349.349,0,0,1-.251-.108L385.9,305.65a.349.349,0,0,1,.011-.5.353.353,0,0,1,.5.011l1.965,2.056,4.3-4.378a.351.351,0,0,1,.5.49l-4.558,4.638a.355.355,0,0,1-.251.105" transform="translate(-21762.879 6634.21)" fill="#91d63f"/>
    <path id="Path_2096" data-name="Path 2096" d="M390.106,308.026h-.01l-.407-.011a.351.351,0,0,1-.341-.361.326.326,0,0,1,.361-.341l.254.007,4.45-4.528a.351.351,0,0,1,.5.491l-4.558,4.638a.355.355,0,0,1-.251.105" transform="translate(-21761.451 6634.189)" fill="#91d63f"/>
    <path id="Path_2007" data-name="Path 2007" d="M418.616,137.873c0,.2-23.427.365-52.319.365s-52.324-.163-52.324-.365,23.422-.365,52.324-.365,52.319.163,52.319.365" transform="translate(-21791.877 6567.509)" fill="#fff"/>
    <path id="Path_2008" data-name="Path 2008" d="M418.616,143.35c0,.2-23.427.365-52.319.365s-52.324-.163-52.324-.365,23.422-.365,52.324-.365,52.319.163,52.319.365" transform="translate(-21791.877 6569.72)" fill="#fff"/>
    <path id="Path_2009" data-name="Path 2009" d="M418.616,148.826c0,.2-23.427.365-52.319.365s-52.324-.163-52.324-.365,23.422-.365,52.324-.365,52.319.163,52.319.365" transform="translate(-21791.877 6571.931)" fill="#fff"/>
    <path id="Path_2041" data-name="Path 2041" d="M310.9,295.214a31.486,31.486,0,1,1-31.486-31.419A31.452,31.452,0,0,1,310.9,295.214" transform="translate(-21818.539 6618.489)" fill="#e0e0e0"/>
    <path id="Path_2067" data-name="Path 2067" d="M259.888,291.98l8.241-.7,20.134,3.391,2.377,15.146-.338,1.763a31.652,31.652,0,0,1-29.845.685Z" transform="translate(-21813.711 6629.585)" fill="#455a64"/>
    <path id="Path_2068" data-name="Path 2068" d="M277.035,293.558a10.77,10.77,0,0,1,10.442,4.59,58.568,58.568,0,0,1,3.741,5.947c-3.272,3.561-5.939,6.272-10.494,7.852Z" transform="translate(-21806.789 6630.458)" fill="#455a64"/>
    <path id="Path_2069" data-name="Path 2069" d="M262.81,291.78s-5.448.668-7.563,5.313-2.6,6.1-2.6,6.1c2.821,3.387,6.4,7.4,10.794,8.9,0,0,1-11.7,1.134-15.008.146-3.627.288-5.415-1.769-5.313" transform="translate(-21816.633 6629.785)" fill="#455a64"/>
    <path id="Path_2042" data-name="Path 2042" d="M264.271,272.228a14.912,14.912,0,0,1,11.538-5.731,16.016,16.016,0,0,1,5.594,1.009,8.273,8.273,0,0,1,4.716,3.113,13.817,13.817,0,0,1,2.713,6.318,38.549,38.549,0,0,1,.341,7.122,12.983,12.983,0,0,1-2.225,6.69L280.9,291.8a38.148,38.148,0,0,1-9.987-.538,12.829,12.829,0,0,1-8.164-5.356c-2.423-3.956-1.416-10.087,1.526-13.676" transform="translate(-21813.107 6619.579)" fill="#263238"/>
    <path id="Path_2070" data-name="Path 2070" d="M259.271,284.18a4.5,4.5,0,0,1,2.049-3.4,3.255,3.255,0,0,1,3.819.33l.952,1.131a3.9,3.9,0,0,1,2.247,3.93,4.275,4.275,0,0,1-2.969,3.5,4.747,4.747,0,0,1-4.511-1.088,5.3,5.3,0,0,1-1.588-4.4" transform="translate(-21813.973 6625.159)" fill="#263238"/>
    <path id="Path_2071" data-name="Path 2071" d="M260.27,287.82a2.033,2.033,0,0,1-.326-1.2,5.449,5.449,0,0,1,1.385-2.715,8.159,8.159,0,0,1,2.424-1.94c.71-.38,1.2-.519,1.182-.569a3.294,3.294,0,0,0-1.273.379,7.313,7.313,0,0,0-2.56,1.937,7.178,7.178,0,0,0-.978,1.485,3.282,3.282,0,0,0-.39,1.415,1.688,1.688,0,0,0,.272.957c.136.2.253.264.264.251" transform="translate(-21813.773 6625.592)" fill="#455a64"/>
    <path id="Path_2062" data-name="Path 2062" d="M279.166,303.006s-.032-5.612-.032-5.6,4.934-.543,6.3-6.854c.678-3.139.8-8.339.769-12.6-.031-3.832-3.3-9.052-8.044-9.068l-2.107-.246-8.068,3.2A2.246,2.246,0,0,0,265.848,274l-.242,26.958,3.694,5.18a5.438,5.438,0,0,0,9.865-3.132" transform="translate(-21811.402 6620.444)" fill="#ffbe9d"/>
    <path id="Path_2072" data-name="Path 2072" d="M272.954,283.162a1.333,1.333,0,0,1,.466-.828,1.378,1.378,0,0,1,1.669-.1,1.839,1.839,0,0,1,.7,1.727,1.677,1.677,0,0,1-1.2.693,1.708,1.708,0,0,1-.225.007,1.5,1.5,0,0,1-1.013-.4,1.333,1.333,0,0,1-.4-1.1" transform="translate(-21808.441 6625.839)" fill="#eb996e"/>
    <path id="Path_2073" data-name="Path 2073" d="M278.656,278.645a.818.818,0,0,1-.834.78.783.783,0,0,1-.8-.782.821.821,0,0,1,.834-.782.785.785,0,0,1,.8.783" transform="translate(-21806.797 6624.168)" fill="#263238"/>
    <path id="Path_2074" data-name="Path 2074" d="M280.069,277.243c-.108.1-.7-.39-1.583-.437s-1.55.358-1.64.246c-.045-.051.07-.237.362-.427a2.265,2.265,0,0,1,1.319-.328,2.171,2.171,0,0,1,1.254.482c.26.222.34.42.288.465" transform="translate(-21806.869 6623.535)" fill="#263238"/>
    <path id="Path_2075" data-name="Path 2075" d="M275.2,283.824a5.86,5.86,0,0,1,1.443-.18c.226-.01.441-.043.487-.194a1.134,1.134,0,0,0-.112-.674q-.274-.832-.571-1.745a28.911,28.911,0,0,1-1.246-4.551,29.384,29.384,0,0,1,1.61,4.44c.189.612.371,1.195.543,1.753a1.3,1.3,0,0,1,.067.887.566.566,0,0,1-.387.307,1.479,1.479,0,0,1-.385.032,5.742,5.742,0,0,1-1.449-.077" transform="translate(-21807.535 6623.61)" fill="#263238"/>
    <path id="Path_2076" data-name="Path 2076" d="M277.644,289.932a16.288,16.288,0,0,1-8.421-2.743s2.034,4.538,8.453,4.293Z" transform="translate(-21809.941 6627.933)" fill="#eb996e"/>
    <path id="Path_2077" data-name="Path 2077" d="M273.376,282.044c.142,0,.091.953.873,1.675s1.8.674,1.8.807c.01.06-.237.173-.668.16a2.38,2.38,0,0,1-1.508-.619,2.064,2.064,0,0,1-.671-1.4c-.017-.4.1-.632.17-.622" transform="translate(-21808.336 6625.856)" fill="#263238"/>
    <path id="Path_2078" data-name="Path 2078" d="M279.951,274.853c-.16.206-.827.025-1.617.048-.793,0-1.456.194-1.618-.008-.072-.1.025-.3.31-.5a2.514,2.514,0,0,1,2.607-.032c.288.2.389.4.319.5" transform="translate(-21806.928 6622.612)" fill="#263238"/>
    <path id="Path_2079" data-name="Path 2079" d="M271.306,278.586a.818.818,0,0,0,.776.839.785.785,0,0,0,.858-.723.82.82,0,0,0-.775-.839.784.784,0,0,0-.859.723" transform="translate(-21809.102 6624.167)" fill="#263238"/>
    <path id="Path_2080" data-name="Path 2080" d="M270.546,276.984c.1.108.729-.34,1.61-.321s1.52.469,1.618.362c.048-.046-.053-.24-.331-.451a2.268,2.268,0,0,0-1.293-.423,2.171,2.171,0,0,0-1.284.39c-.274.2-.369.393-.32.442" transform="translate(-21809.414 6623.478)" fill="#263238"/>
    <path id="Path_2081" data-name="Path 2081" d="M270.189,275.654c.17.2.855.007,1.672.011.818-.021,1.509.16,1.672-.045.072-.1-.034-.3-.333-.5a2.53,2.53,0,0,0-1.355-.351,2.5,2.5,0,0,0-1.34.378c-.292.2-.39.406-.316.5" transform="translate(-21809.563 6622.92)" fill="#263238"/>
    <path id="Path_2082" data-name="Path 2082" d="M267.874,280.239c.025-.474-.463-1.623-.928-1.721-1.242-.264-3.506-.286-3.7,2.887-.267,4.34,4.154,3.713,4.169,3.588.013-.1.376-3.116.462-4.754" transform="translate(-21812.361 6624.389)" fill="#ffbe9d"/>
    <path id="Path_2083" data-name="Path 2083" d="M265.956,282.921c-.018-.016-.079.049-.211.1a.764.764,0,0,1-.567-.024,1.87,1.87,0,0,1-.764-1.732,2.5,2.5,0,0,1,.278-1.068.876.876,0,0,1,.606-.546.387.387,0,0,1,.434.234c.051.125.018.211.041.219s.1-.067.074-.249a.492.492,0,0,0-.154-.282.577.577,0,0,0-.413-.136,1.066,1.066,0,0,0-.832.625,2.576,2.576,0,0,0-.338,1.193,1.966,1.966,0,0,0,.991,1.941.814.814,0,0,0,.7-.072c.142-.1.17-.2.156-.2" transform="translate(-21812.008 6624.803)" fill="#eb996e"/>
    <path id="Path_2063" data-name="Path 2063" d="M266.416,282.821l1.1,1.144c4.771-4.558,14.1-15.968,13.575-15.289a13.928,13.928,0,0,0-6.816-.738c-3.547.6-10.276,2.375-10.174,6.551a21.748,21.748,0,0,0,2.31,8.332" transform="translate(-21812.01 6620.099)" fill="#263238"/>
    <path id="Path_2064" data-name="Path 2064" d="M261.249,281.893a1.143,1.143,0,0,1,.066-.251,4.512,4.512,0,0,1,.3-.684,6.314,6.314,0,0,1,1.816-2.041,11.908,11.908,0,0,1,3.659-1.756c1.456-.473,3.1-.841,4.705-1.53a21.306,21.306,0,0,0,4.3-2.4,22.212,22.212,0,0,0,3.033-2.645,23.833,23.833,0,0,0,1.753-2.077c.178-.243.323-.442.437-.6a1.257,1.257,0,0,1,.163-.2,1.05,1.05,0,0,1-.126.227c-.09.143-.219.358-.4.623a19.965,19.965,0,0,1-1.708,2.134,21.223,21.223,0,0,1-3.028,2.7,20.835,20.835,0,0,1-4.332,2.441,47.681,47.681,0,0,1-4.728,1.52,12.092,12.092,0,0,0-3.627,1.687A6.515,6.515,0,0,0,261.689,281c-.32.554-.417.9-.439.893" transform="translate(-21813.162 6620.068)" fill="#455a64"/>
    <path id="Path_2065" data-name="Path 2065" d="M262.152,282.309a2.285,2.285,0,0,1,.168-.947,4.444,4.444,0,0,1,1.634-2.044,9.886,9.886,0,0,1,3.63-1.421,21.43,21.43,0,0,0,4.509-1.427,19.081,19.081,0,0,0,4.02-2.476,19.623,19.623,0,0,0,2.757-2.7,20.6,20.6,0,0,0,1.536-2.107l.369-.608a1.067,1.067,0,0,1,.142-.2,1,1,0,0,1-.1.226l-.334.632a17.63,17.63,0,0,1-1.488,2.162,18.743,18.743,0,0,1-6.806,5.282,21.007,21.007,0,0,1-4.555,1.426,9.959,9.959,0,0,0-3.585,1.348,4.488,4.488,0,0,0-1.644,1.945,5.274,5.274,0,0,0-.25.918" transform="translate(-21812.799 6620.336)" fill="#455a64"/>
    <path id="Path_2091" data-name="Path 2091" d="M260.381,308.62a59.023,59.023,0,0,1,0-8.3,59.619,59.619,0,0,1,0,8.3" transform="translate(-21813.57 6633.234)" fill="#263238"/>
    <path id="Path_2092" data-name="Path 2092" d="M282.024,308.628a8.76,8.76,0,0,1,.049-1.474,16.548,16.548,0,0,0-.122-3.519,17.445,17.445,0,0,0-1.011-3.38,8.446,8.446,0,0,1-.508-1.388,6.748,6.748,0,0,1,.7,1.311,14.032,14.032,0,0,1,1.109,3.412,13.433,13.433,0,0,1,.039,3.579,6.5,6.5,0,0,1-.254,1.458" transform="translate(-21805.42 6632.647)" fill="#263238"/>
    <path id="Path_2066" data-name="Path 2066" d="M426.534,311.931h-107.3a9.647,9.647,0,0,1-9.647-9.648V278.644l-11.829-10.5H426.534a9.647,9.647,0,0,1,9.648,9.648v24.493a9.647,9.647,0,0,1-9.648,9.648" transform="translate(-21798.424 6620.245)" fill="#ebebeb"/>
    <path id="Path_2084" data-name="Path 2084" d="M418.616,277.44c0,.2-23.427.365-52.319.365s-52.324-.163-52.324-.365,23.422-.365,52.324-.365,52.319.163,52.319.365" transform="translate(-21791.877 6623.85)" fill="#fff"/>
    <path id="Path_2085" data-name="Path 2085" d="M418.616,282.916c0,.2-23.427.365-52.319.365s-52.324-.163-52.324-.365,23.422-.365,52.324-.365,52.319.163,52.319.365" transform="translate(-21791.877 6626.061)" fill="#fff"/>
    <path id="Path_2086" data-name="Path 2086" d="M418.616,288.392c0,.2-23.427.366-52.319.366s-52.324-.163-52.324-.366,23.422-.365,52.324-.365,52.319.163,52.319.365" transform="translate(-21791.877 6628.271)" fill="#fff"/>
    <path id="Path_2010" data-name="Path 2010" d="M418.616,154.3c0,.2-23.427.365-52.319.365s-52.324-.163-52.324-.365,23.422-.364,52.324-.364,52.319.161,52.319.364" transform="translate(-21791.877 6574.142)" fill="#fff"/>
    <path id="Path_2011" data-name="Path 2011" d="M418.616,159.779c0,.2-23.427.365-52.319.365s-52.324-.163-52.324-.365,23.422-.365,52.324-.365,52.319.163,52.319.365" transform="translate(-21791.877 6576.353)" fill="#fff"/>
    <path id="Path_2012" data-name="Path 2012" d="M418.616,166.36c0,.2-23.427.365-52.319.365s-52.324-.163-52.324-.365,23.422-.365,52.324-.365,52.319.163,52.319.365" transform="translate(-21791.877 6579.009)" fill="#fff"/>
    <path id="Path_2013" data-name="Path 2013" d="M314.374,72.6a5.6,5.6,0,0,1,9.7-3.456l-1.51,1.394a3.273,3.273,0,0,0-2.555-1.19,3.252,3.252,0,1,0,0,6.5,3.238,3.238,0,0,0,2.555-1.2l1.51,1.394a5.588,5.588,0,0,1-9.7-3.442" transform="translate(-21791.715 6539.186)" fill="#263238"/>
    <path id="Path_2014" data-name="Path 2014" d="M330.283,73.339v4.474h-2.264V73.688c0-1.265-.581-1.844-1.583-1.844-1.091,0-1.874.668-1.874,2.106v3.863H322.3V67.036h2.264v3.776a3.435,3.435,0,0,1,2.483-.929c1.844,0,3.238,1.075,3.238,3.456" transform="translate(-21788.518 6539.061)" fill="#263238"/>
    <path id="Path_2015" data-name="Path 2015" d="M336.5,72.535v4.458h-2.118v-.974A2.566,2.566,0,0,1,332,77.11c-1.828,0-2.918-1.018-2.918-2.368,0-1.38.974-2.337,3.355-2.337h1.8c0-.974-.581-1.54-1.8-1.54a3.756,3.756,0,0,0-2.252.726l-.813-1.582a6.006,6.006,0,0,1,3.37-.945c2.381,0,3.759,1.1,3.759,3.471m-2.264,1.989v-.8h-1.555c-1.058,0-1.394.392-1.394.915,0,.566.48.943,1.279.943a1.67,1.67,0,0,0,1.67-1.06" transform="translate(-21785.779 6539.88)" fill="#263238"/>
    <path id="Path_2016" data-name="Path 2016" d="M341.13,77.078a3.244,3.244,0,0,1-1.846.494c-1.844,0-2.917-.945-2.917-2.8V71.56H335.16V69.817h1.207v-1.9h2.264v1.9h1.947V71.56h-1.947v3.181a.91.91,0,0,0,.973,1.03,1.519,1.519,0,0,0,.914-.291Z" transform="translate(-21783.326 6539.416)" fill="#263238"/>
    <path id="Path_2017" data-name="Path 2017" d="M398.682,82.351c0,.2-23.923.365-53.427.365s-53.433-.163-53.433-.365,23.919-.365,53.433-.365,53.427.163,53.427.365" transform="translate(-21800.82 6545.096)" fill="#263238"/>
    <path id="Path_2043" data-name="Path 2043" d="M404.884,70.033a2.488,2.488,0,1,1-2.487-2.487,2.487,2.487,0,0,1,2.487,2.487" transform="translate(-21757.188 6539.267)" fill="#263238"/>
    <path id="Path_2044" data-name="Path 2044" d="M404.884,75.2a2.488,2.488,0,1,1-2.487-2.487,2.487,2.487,0,0,1,2.487,2.487" transform="translate(-21757.188 6541.353)" fill="#263238"/>
    <path id="Path_2045" data-name="Path 2045" d="M404.884,80.365a2.488,2.488,0,1,1-2.487-2.487,2.487,2.487,0,0,1,2.487,2.487" transform="translate(-21757.188 6543.438)" fill="#263238"/>
    <path id="Path_2018" data-name="Path 2018" d="M259.835,78.474a.694.694,0,0,1-.416-.136l-6.587-4.831a.7.7,0,0,1,.006-1.136l6.587-4.74a.7.7,0,0,1,.82,1.14l-5.8,4.176,5.81,4.26a.7.7,0,0,1-.415,1.268" transform="translate(-21816.676 6539.249)" fill="#263238"/>
    <path id="Path_2019" data-name="Path 2019" d="M420.673,230.122A31.485,31.485,0,1,1,389.187,198.7a31.452,31.452,0,0,1,31.486,31.419" transform="translate(-21774.225 6592.213)" fill="#e0e0e0"/>
    <path id="Path_2046" data-name="Path 2046" d="M391.649,235.539H375.092a2.136,2.136,0,0,1,0-4.273h16.556a2.136,2.136,0,1,1,0,4.273" transform="translate(-21768.066 6605.358)" fill="#263238"/>
    <rect id="Rectangle_827" data-name="Rectangle 827" width="1.454" height="7.355" transform="translate(-21385.215 6801.901)" fill="#263238"/>
    <path id="Path_2032" data-name="Path 2032" d="M370.733,225.667a4.274,4.274,0,1,1-4.274-4.274,4.274,4.274,0,0,1,4.274,4.274" transform="translate(-21772.414 6601.373)" fill="#67982d"/>
    <path id="Path_2047" data-name="Path 2047" d="M401.471,225.467a4.274,4.274,0,1,1-4.274-4.274,4.274,4.274,0,0,1,4.274,4.274" transform="translate(-21760.008 6601.292)" fill="#67982d"/>
    <path id="Path_2034" data-name="Path 2034" d="M387.229,210.676s17.378-.209,20.129,14.843-11.945,15.332-16.172,15.617c-1.917.129-6.018.142-9.636.08-8.009-.139-13.67-1.69-15.6-9.123a14.074,14.074,0,0,1-.432-2.661c-.51-8.146,5-19.157,21.708-18.756" transform="translate(-21771.082 6597.042)" fill="#91d63f"/>
    <path id="Path_2035" data-name="Path 2035" d="M373.353,229.761l25.247.394a4.792,4.792,0,0,0,.149-9.583l-25.245-.394a4.792,4.792,0,1,0-.15,9.583" transform="translate(-21769.813 6600.881)" fill="#263238"/>
    <path id="Path_2048" data-name="Path 2048" d="M386.258,224.08a1.538,1.538,0,1,0,1.214-1.805,1.538,1.538,0,0,0-1.214,1.805" transform="translate(-21762.709 6601.717)" fill="#fff"/>
    <path id="Path_2049" data-name="Path 2049" d="M373.693,223.879a1.537,1.537,0,1,0,1.214-1.805,1.537,1.537,0,0,0-1.214,1.805" transform="translate(-21767.781 6601.636)" fill="#fff"/>
    <path id="Path_2050" data-name="Path 2050" d="M383.611,207.114a2.4,2.4,0,1,1-2.4-2.4,2.4,2.4,0,0,1,2.4,2.4" transform="translate(-21765.701 6594.641)" fill="#67982d"/>
    <path id="Path_2051" data-name="Path 2051" d="M384.793,223.048c.041-.007.109.119.153.368a2.4,2.4,0,0,1-.093,1.068,3.176,3.176,0,0,1-.844,1.367,2.907,2.907,0,0,1-3.744.342A3.194,3.194,0,0,1,379.19,225a2.417,2.417,0,0,1-.285-1.033c0-.253.042-.389.084-.389.109-.01.145.532.6,1.181a3.186,3.186,0,0,0,1,.915,2.478,2.478,0,0,0,3.005-.274,3.192,3.192,0,0,0,.817-1.082c.333-.72.27-1.259.379-1.27" transform="translate(-21765.666 6602.041)" fill="#fff"/>
    <path id="Path_2052" data-name="Path 2052" d="M395.538,220.9a2.228,2.228,0,0,1,.138.372c.041.121.088.269.131.446s.1.373.143.6a11.97,11.97,0,0,1,.22,1.589,13.2,13.2,0,0,1-.017,1.965,13.474,13.474,0,0,1-.328,1.937,12.021,12.021,0,0,1-.5,1.524c-.079.215-.171.4-.246.566s-.146.3-.208.415a2.217,2.217,0,0,1-.2.341,2.457,2.457,0,0,1,.154-.364c.055-.115.119-.256.187-.424s.153-.354.226-.568a13.413,13.413,0,0,0,.466-1.52,13.04,13.04,0,0,0,.342-3.864,13.042,13.042,0,0,0-.191-1.579c-.034-.225-.086-.423-.122-.6s-.076-.327-.109-.449a2.265,2.265,0,0,1-.087-.386" transform="translate(-21759.301 6601.172)" fill="#263238"/>
    <path id="Path_2036" data-name="Path 2036" d="M366.15,220.963a2,2,0,0,0-.139.373c-.041.119-.088.268-.131.444s-.1.376-.143.6a11.97,11.97,0,0,0-.22,1.589,13.217,13.217,0,0,0,.017,1.965,13.469,13.469,0,0,0,.328,1.937,12.252,12.252,0,0,0,.5,1.524c.079.215.171.4.246.566s.146.3.209.415a2.169,2.169,0,0,0,.2.341,2.533,2.533,0,0,0-.154-.364c-.055-.115-.118-.255-.187-.424s-.153-.354-.226-.569a13.414,13.414,0,0,1-.466-1.52,13.04,13.04,0,0,1-.342-3.864,13.058,13.058,0,0,1,.191-1.579c.035-.223.086-.422.122-.6s.076-.326.109-.449a2.591,2.591,0,0,0,.088-.386" transform="translate(-21771.082 6601.199)" fill="#263238"/>
    <path id="Path_2037" data-name="Path 2037" d="M368.636,241.756s5.157-5.045,15.961-5.045,16.321,5.045,16.321,5.045a31.268,31.268,0,0,1-32.282,0" transform="translate(-21769.811 6607.556)" fill="#91d63f"/>
    <path id="Path_2020" data-name="Path 2020" d="M260.167,258.655h107.3a9.647,9.647,0,0,0,9.648-9.648V217.873l11.829-10.5H260.167a9.648,9.648,0,0,0-9.647,9.649v31.987a9.647,9.647,0,0,0,9.647,9.648" transform="translate(-21817.492 6595.712)" fill="#ebebeb"/>
    <path id="Path_2021" data-name="Path 2021" d="M358.836,218.32c0,.2-22.1.365-49.356.365s-49.36-.163-49.36-.365,22.1-.365,49.36-.365,49.356.163,49.356.365" transform="translate(-21813.617 6599.984)" fill="#fff"/>
    <path id="Path_2022" data-name="Path 2022" d="M358.836,224.258c0,.2-22.1.365-49.356.365s-49.36-.163-49.36-.365,22.1-.365,49.36-.365,49.356.163,49.356.365" transform="translate(-21813.617 6602.381)" fill="#fff"/>
    <path id="Path_2023" data-name="Path 2023" d="M358.836,230.2c0,.2-22.1.365-49.356.365s-49.36-.163-49.36-.365,22.1-.365,49.36-.365,49.356.163,49.356.365" transform="translate(-21813.617 6604.779)" fill="#fff"/>
    <path id="Path_2024" data-name="Path 2024" d="M358.836,236.134c0,.2-22.1.365-49.356.365s-49.36-.163-49.36-.365,22.1-.365,49.36-.365,49.356.163,49.356.365" transform="translate(-21813.617 6607.175)" fill="#fff"/>
    <path id="Path_2097" data-name="Path 2097" d="M420.673,354.4a31.485,31.485,0,1,1-31.486-31.419A31.452,31.452,0,0,1,420.673,354.4" transform="translate(-21774.225 6642.381)" fill="#e0e0e0"/>
    <path id="Path_2111" data-name="Path 2111" d="M391.649,359.817H375.092a2.136,2.136,0,1,1,0-4.273h16.556a2.136,2.136,0,1,1,0,4.273" transform="translate(-21768.066 6655.527)" fill="#263238"/>
    <rect id="Rectangle_829" data-name="Rectangle 829" width="1.454" height="7.355" transform="translate(-21385.215 6976.349)" fill="#263238"/>
    <path id="Path_2102" data-name="Path 2102" d="M370.733,349.945a4.274,4.274,0,1,1-4.274-4.274,4.274,4.274,0,0,1,4.274,4.274" transform="translate(-21772.414 6651.542)" fill="#67982d"/>
    <path id="Path_2103" data-name="Path 2103" d="M401.471,349.745a4.274,4.274,0,1,1-4.274-4.274,4.274,4.274,0,0,1,4.274,4.274" transform="translate(-21760.008 6651.46)" fill="#67982d"/>
    <path id="Path_2098" data-name="Path 2098" d="M387.229,334.954s17.378-.209,20.129,14.842-11.945,15.332-16.172,15.617c-1.917.129-6.018.142-9.636.08-8.009-.14-13.67-1.69-15.6-9.122a14.074,14.074,0,0,1-.432-2.661c-.51-8.146,5-19.157,21.708-18.756" transform="translate(-21771.082 6647.21)" fill="#91d63f"/>
    <path id="Path_2104" data-name="Path 2104" d="M373.353,354.039l25.247.394a4.792,4.792,0,0,0,.149-9.583l-25.245-.394a4.792,4.792,0,1,0-.15,9.583" transform="translate(-21769.813 6651.05)" fill="#263238"/>
    <path id="Path_2105" data-name="Path 2105" d="M386.258,348.358a1.538,1.538,0,1,0,1.214-1.805,1.538,1.538,0,0,0-1.214,1.805" transform="translate(-21762.709 6651.886)" fill="#fff"/>
    <path id="Path_2106" data-name="Path 2106" d="M373.693,348.158a1.538,1.538,0,1,0,1.214-1.805,1.538,1.538,0,0,0-1.214,1.805" transform="translate(-21767.781 6651.805)" fill="#fff"/>
    <path id="Path_2099" data-name="Path 2099" d="M383.611,331.393a2.4,2.4,0,1,1-2.4-2.4,2.4,2.4,0,0,1,2.4,2.4" transform="translate(-21765.701 6644.81)" fill="#67982d"/>
    <path id="Path_2107" data-name="Path 2107" d="M384.793,347.326c.041-.007.109.118.153.368a2.4,2.4,0,0,1-.093,1.067,3.18,3.18,0,0,1-.844,1.369,2.907,2.907,0,0,1-3.744.342,3.2,3.2,0,0,1-1.077-1.193,2.417,2.417,0,0,1-.285-1.033c0-.253.042-.389.084-.389.109-.01.145.532.6,1.179a3.173,3.173,0,0,0,1,.917,2.475,2.475,0,0,0,3.005-.275,3.188,3.188,0,0,0,.817-1.081c.333-.721.27-1.259.379-1.27" transform="translate(-21765.666 6652.209)" fill="#fff"/>
    <path id="Path_2108" data-name="Path 2108" d="M395.538,345.175a2.232,2.232,0,0,1,.138.372c.041.121.088.27.131.445s.1.375.143.6a11.97,11.97,0,0,1,.22,1.589,13.2,13.2,0,0,1-.017,1.965,13.475,13.475,0,0,1-.328,1.937,12.024,12.024,0,0,1-.5,1.524c-.079.215-.171.4-.246.566s-.146.3-.208.416a2.216,2.216,0,0,1-.2.341,2.458,2.458,0,0,1,.154-.364c.055-.115.119-.255.187-.424s.153-.354.226-.568a13.413,13.413,0,0,0,.466-1.52,13.04,13.04,0,0,0,.342-3.864,13.045,13.045,0,0,0-.191-1.579c-.034-.225-.086-.422-.122-.6s-.076-.327-.109-.449a2.266,2.266,0,0,1-.087-.386" transform="translate(-21759.301 6651.341)" fill="#263238"/>
    <path id="Path_2109" data-name="Path 2109" d="M366.15,345.241a2,2,0,0,0-.139.373c-.041.119-.088.268-.131.445s-.1.373-.143.6a11.97,11.97,0,0,0-.22,1.589,13.217,13.217,0,0,0,.017,1.965,13.466,13.466,0,0,0,.328,1.937,12.25,12.25,0,0,0,.5,1.524c.079.215.171.4.246.566a4.524,4.524,0,0,0,.209.416,2.167,2.167,0,0,0,.2.341,2.532,2.532,0,0,0-.154-.363c-.055-.115-.118-.256-.187-.424s-.153-.354-.226-.568a13.323,13.323,0,0,1-.466-1.52,13.04,13.04,0,0,1-.342-3.864,13.054,13.054,0,0,1,.191-1.579c.035-.223.086-.423.122-.6s.076-.326.109-.449a2.592,2.592,0,0,0,.088-.386" transform="translate(-21771.082 6651.368)" fill="#263238"/>
    <path id="Path_2113" data-name="Path 2113" d="M368.636,366.034s5.157-5.045,15.961-5.045,16.321,5.045,16.321,5.045a31.268,31.268,0,0,1-32.282,0" transform="translate(-21769.811 6657.725)" fill="#91d63f"/>
    <path id="Path_2100" data-name="Path 2100" d="M260.167,382.932h107.3a9.647,9.647,0,0,0,9.648-9.647V342.15l11.829-10.5H260.167a9.648,9.648,0,0,0-9.647,9.649v31.987a9.647,9.647,0,0,0,9.647,9.647" transform="translate(-21817.492 6645.88)" fill="#ebebeb"/>
    <path id="Path_2117" data-name="Path 2117" d="M260.167,411.628h107.3a9.647,9.647,0,0,0,9.648-9.648V391.664l11.829-10.5H260.167a9.647,9.647,0,0,0-9.647,9.648v11.17a9.647,9.647,0,0,0,9.647,9.648" transform="translate(-21817.492 6665.869)" fill="#ebebeb"/>
    <path id="Path_2101" data-name="Path 2101" d="M358.836,342.6c0,.2-22.1.365-49.356.365s-49.36-.163-49.36-.365,22.1-.365,49.36-.365,49.356.163,49.356.365" transform="translate(-21813.617 6650.153)" fill="#fff"/>
    <path id="Path_2110" data-name="Path 2110" d="M358.836,348.536c0,.2-22.1.365-49.356.365s-49.36-.163-49.36-.365,22.1-.365,49.36-.365,49.356.163,49.356.365" transform="translate(-21813.617 6652.55)" fill="#fff"/>
    <path id="Path_2112" data-name="Path 2112" d="M358.836,354.474c0,.2-22.1.365-49.356.365s-49.36-.163-49.36-.365,22.1-.365,49.36-.365,49.356.163,49.356.365" transform="translate(-21813.617 6654.947)" fill="#fff"/>
    <path id="Path_2114" data-name="Path 2114" d="M358.836,360.412c0,.2-22.1.365-49.356.365s-49.36-.163-49.36-.365,22.1-.365,49.36-.365,49.356.163,49.356.365" transform="translate(-21813.617 6657.344)" fill="#fff"/>
    <path id="Path_2056" data-name="Path 2056" d="M238.97,309.41a26.3,26.3,0,1,1,12.237-3.056,26.271,26.271,0,0,1-12.237,3.056m-.066-52.468a26.192,26.192,0,1,0,25.059,33.916l.032.011-.032-.011A26.224,26.224,0,0,0,238.9,256.941" transform="translate(-21832.773 6615.694)" fill="#263238"/>
    <path id="Path_2059" data-name="Path 2059" d="M77.179,266.449c-.014.2-4.607.039-10.257-.362s-10.22-.893-10.206-1.095,4.605-.039,10.258.365,10.219.893,10.2,1.092" transform="translate(-21895.727 6618.938)" fill="#fff"/>
    <path id="Path_2115" data-name="Path 2115" d="M155.5,385.794a7.2,7.2,0,0,1-1.644-.2,34.7,34.7,0,0,1-4.391-1.06,45.68,45.68,0,0,1-6.26-2.406,47.624,47.624,0,0,1-13.4-9.419,45.542,45.542,0,0,1-4.382-5.077,34.724,34.724,0,0,1-2.483-3.772,7.213,7.213,0,0,1-.745-1.479c.119-.072,1.293,1.972,3.638,4.937a52.1,52.1,0,0,0,4.444,4.911,51.1,51.1,0,0,0,13.216,9.292,51.924,51.924,0,0,0,6.127,2.52c3.582,1.2,5.9,1.617,5.876,1.753" transform="translate(-21869.293 6658.286)" fill="#fff"/>
    <g id="Group_1146" data-name="Group 1146" transform="translate(-141.273 -681.19)">
      <g id="Group_1144" data-name="Group 1144" transform="translate(-22715.955 5142.157) rotate(-16)">
        <rect id="Rectangle_244" data-name="Rectangle 244" width="19.227" height="130.468" transform="matrix(0.92, -0.391, 0.391, 0.92, 542.941, 2657.459)" fill="#72a932"/>
        <path id="Path_407" data-name="Path 407" d="M263.982,290.857A26.222,26.222,0,1,0,231.2,308.185a26.222,26.222,0,0,0,32.786-17.328" transform="translate(304.238 2361.367)" fill="#263238"/>
        <path id="Path_409" data-name="Path 409" d="M280.165,339.115a19.666,19.666,0,1,0-24.59,13,19.667,19.667,0,0,0,24.59-13" transform="translate(315.947 2384.275)" fill="#263238"/>
        <path id="Path_410" data-name="Path 410" d="M296.693,370.793a16.069,16.069,0,1,0-10.154,20.33,16.068,16.068,0,0,0,10.154-20.33" transform="translate(325.504 2402.91)" fill="#263238"/>
        <path id="Path_411" data-name="Path 411" d="M271,372.267l-9,14.765a3.445,3.445,0,0,0,1.15,4.733l.43.261a3.443,3.443,0,0,0,4.733-1.148l9-14.765Z" transform="translate(323.941 2407.939)" fill="#263238"/>
        <path id="Path_412" data-name="Path 412" d="M274.058,382.252l5.317,15.93a3.444,3.444,0,0,0,4.357,2.176l.479-.159a3.444,3.444,0,0,0,2.176-4.357l-5.317-15.93a.5.5,0,0,0-.629-.314l-6.07,2.027a.5.5,0,0,0-.313.627" transform="translate(329 2410.888)" fill="#263238"/>
        <path id="Path_413" data-name="Path 413" d="M279.721,381.016l8.666,14.385a3.443,3.443,0,0,0,4.728,1.172l.432-.26a3.445,3.445,0,0,0,1.172-4.728L286.054,377.2a.5.5,0,0,0-.682-.168l-5.481,3.3a.5.5,0,0,0-.169.682" transform="translate(331.268 2409.834)" fill="#263238"/>
        <path id="Path_414" data-name="Path 414" d="M284.706,378.125l12.57,11.137a3.443,3.443,0,0,0,4.861-.293l.335-.378a3.444,3.444,0,0,0-.295-4.861l-12.57-11.137a.5.5,0,0,0-.7.042l-4.243,4.789a.5.5,0,0,0,.042.7" transform="translate(333.24 2408.02)" fill="#263238"/>
      </g>
      <path id="Path_1727" data-name="Path 1727" d="M117.975,287.37l-61-6.18-26-60.77-20,5.15s14.349,64.232,31,74.16,74,12.36,74,12.36Z" transform="translate(-21793.408 7246.314)" fill="#72a932"/>
      <path id="Path_1728" data-name="Path 1728" d="M74.1,282.629c0,15.453,12,27.81,27,27.81s28-12.357,28-27.81-13-27.81-28-27.81-27,12.357-27,27.81" transform="translate(-21764.533 7263.416)" fill="#263238"/>
      <path id="Path_1729" data-name="Path 1729" d="M101.107,311.48a26.141,26.141,0,0,1-19-8.24,30.2,30.2,0,0,1-8-20.6,27.719,27.719,0,0,1,8-19.57,26.141,26.141,0,0,1,19-8.24,28.413,28.413,0,0,1,20,8.24,27.722,27.722,0,0,1,8,19.57,30.2,30.2,0,0,1-8,20.6,28.413,28.413,0,0,1-20,8.24m0-56.65a26.205,26.205,0,0,0-19,8.24,27.936,27.936,0,0,0,0,39.14,26.212,26.212,0,0,0,19,8.24,28.488,28.488,0,0,0,20-8.24c5.125-5.278,7-12.1,7-19.57s-1.875-14.293-7-19.57a28.481,28.481,0,0,0-20-8.24" transform="translate(-21764.541 7263.404)" fill="#263238"/>
      <path id="Path_1730" data-name="Path 1730" d="M21.141,270.026c0,11.59,9.749,21.63,21,21.63s20-10.04,20-21.63-8.747-20.6-20-20.6-21,9.01-21,20.6" transform="translate(-21788.574 7260.568)" fill="#263238"/>
      <path id="Path_1741" data-name="Path 1741" d="M131.707,238.472h91c5.9,0,11-4.22,11-10.3v-2.06c0-6.08-5.1-10.3-11-10.3h-91c-5.9,0-10,4.22-10,10.3v2.06c0,6.08,4.1,10.3,10,10.3" transform="translate(-21743.141 7243.713)" fill="#263238"/>
      <path id="Path_1742" data-name="Path 1742" d="M63.115,187.213c0,13.052,10.326,23.69,23,23.69s23-10.638,23-23.69-10.328-23.69-23-23.69-23,10.638-23,23.69" transform="translate(-21769.549 7217.722)" fill="#86c63a"/>
      <path id="Path_1743" data-name="Path 1743" d="M62.84,187.14c0,13.052,10.326,23.69,23,23.69s23-10.638,23-23.69-10.328-23.69-23-23.69-23,10.638-23,23.69" transform="translate(-21534.273 7216.766)" fill="#86c63a"/>
      <path id="Path_1744" data-name="Path 1744" d="M190.984,108.306s-93.23-.835-108,82.4,64.307,84.942,87,86.519c10.291.714,32.573.348,52,0,43.01-.768,72.659-9.371,83-50.47,1.206-4.792,2.7-9.414,3-14.42,2.735-45.046-27.314-106.248-117-104.029" transform="translate(-21761.418 7190.54)" fill="#91d63f"/>
      <path id="Path_1745" data-name="Path 1745" d="M254.018,210.444l-136,3.09c-14.208.229-25.778-12.146-26-26.78s10.791-26.552,25-26.78l136-2.06c14.208-.229,25.779,11.116,26,25.75s-10.792,26.552-25,26.78" transform="translate(-21756.014 7215.092)" fill="#263238"/>
      <path id="Path_1746" data-name="Path 1746" d="M134.182,178.318c-.877,4.609-4.525,8.113-9,7.21a9.161,9.161,0,0,1-7-10.3c.877-4.61,5.525-7.082,10-6.18s6.877,4.661,6,9.27" transform="translate(-21744.615 7220.438)" fill="#fff"/>
      <path id="Path_1747" data-name="Path 1747" d="M199.6,177.819c-.877,4.609-5.525,7.083-10,6.18s-6.877-4.661-6-9.27,5.525-8.112,10-7.21,6.877,5.691,6,10.3" transform="translate(-21715.037 7219.906)" fill="#fff"/>
      <g id="Group_1003" data-name="Group 1003" transform="translate(-21578.434 7253.526)">
        <rect id="Rectangle_745" data-name="Rectangle 745" width="8" height="41.2" transform="translate(9 13.39)" fill="#263238"/>
        <path id="Path_1748" data-name="Path 1748" d="M151.256,91.6c0,7.321,5.892,12.36,13,12.36s12-5.039,12-12.36-4.89-13.39-12-13.39a13.293,13.293,0,0,0-13,13.39" transform="translate(-151.256 -78.213)" fill="#86c63a"/>
      </g>
      <path id="Path_1750" data-name="Path 1750" d="M230.855,216.372c-.138-.081,1.39-2.49,3-7.21a76.693,76.693,0,0,0,4-18.54,160.01,160.01,0,0,0,1-19.57c-.113-2.5-.89-4.782-1-6.18a7.058,7.058,0,0,1,0-2.06,3.035,3.035,0,0,1,1,2.06c.2,1.392-.182,3.671,0,6.18a118.254,118.254,0,0,1,0,19.57,69.891,69.891,0,0,1-4,18.54,46.342,46.342,0,0,1-3,6.18c-.718,1.2-.956,1.058-1,1.03" transform="translate(-21693.289 7217.403)" fill="#263238"/>
      <path id="Path_1751" data-name="Path 1751" d="M83.461,161.221a2.861,2.861,0,0,1,0,2.06c-.179.677-.81,2.113-1,3.09s.18,1.85,0,3.09c-.455,2.462-1.786,5.969-2,9.27-.166,3.3.689,6.5,1,10.3.345,3.8.271,7.077,1,10.3a66.089,66.089,0,0,0,3,8.24c.39,1.188.638,3.2,1,4.12s.708,1.425,1,2.06c.57,1.275,1.047,2.035,1,2.06s-.346-.82-1-2.06a22.247,22.247,0,0,1-1-2.06c-.4-.914-1.574-1.905-2-3.09-.939-2.335-1.18-6.035-2-9.27a68.928,68.928,0,0,1-2-10.3,67.927,67.927,0,0,1,0-10.3,79.208,79.208,0,0,1,1-9.27,32.477,32.477,0,0,1,1-3.09c.23-.975-.225-2.423,0-3.09a5.667,5.667,0,0,1,1-2.06" transform="translate(-21761.895 7216.935)" fill="#263238"/>
      <path id="Path_1752" data-name="Path 1752" d="M87.291,254.215c0-.012-.366-.124,0,0,.4.139,1.317.79,2,1.03,1.457.529,3.337,1.094,6,2.06,1.348.5,3.368.431,5,1.03,1.648.568,3.064,1.438,5,2.06,3.886,1.189,8.029,2.916,13,4.12,2.472.653,5.3,1.349,8,2.06s6.07,1.406,9,2.06c5.85,1.384,11.343,1.98,18,3.09a332.189,332.189,0,0,0,44,3.09,332.155,332.155,0,0,0,44-3.09c6.657-1.108,13.15-1.706,19-3.09,2.93-.655,5.3-1.361,8-2.06s5.528-1.408,8-2.06c4.971-1.2,9.114-2.932,13-4.12,1.936-.62,4.352-1.494,6-2.06,1.632-.6,2.652-.534,4-1.03,2.663-.966,4.543-1.531,6-2.06.685-.24,1.6-.891,2-1.03.366-.124,0-.012,0,0s.356-.148,0,0c-.394.159-1.327.76-2,1.03-1.447.562-3.356,1.034-6,2.06-1.342.515-2.373,1.435-4,2.06-1.642.587-4.067.389-6,1.03-3.878,1.23-8.029,2.881-13,4.12-2.472.669-5.3,1.331-8,2.06s-5.065,1.39-8,2.06c-5.858,1.414-12.33,2.989-19,4.12a324.776,324.776,0,0,1-44,3.09,324.82,324.82,0,0,1-44-3.09c-6.669-1.132-13.144-2.706-19-4.12-2.935-.671-5.3-1.342-8-2.06s-5.528-1.39-8-2.06c-4.971-1.242-9.122-2.889-13-4.12-1.933-.641-3.358-.443-5-1.03-1.627-.625-3.658-1.545-5-2.06-2.644-1.026-4.555-1.5-6-2.06-.673-.271-1.607-.871-2-1.03-.358-.148,0,.012,0,0" transform="translate(-21758.725 7262.99)" fill="#263238"/>
      <path id="Path_1753" data-name="Path 1753" d="M177.6,112.406c0,.013.223-.025,0,0-.268.024-.6.994-1,1.03-.865.093-2.36-.2-4,0a93.63,93.63,0,0,0-14,2.06,97.8,97.8,0,0,0-19,7.21c-7.067,3.363-15.046,7.527-22,13.39-6.912,5.921-12.454,13.06-17,19.57a101.885,101.885,0,0,0-10,18.54,112.376,112.376,0,0,0-5,13.39c-.5,1.619-.748,2.233-1,3.09-.111.392.074.763,0,1.03a6.41,6.41,0,0,0,0,1.03,6.411,6.411,0,0,1,0-1.03c.055-.271-.081-.63,0-1.03.205-.872.538-1.453,1-3.09.832-3.3,1.647-8.817,4-14.42s6.441-11.961,11-18.54a96.356,96.356,0,0,1,17-18.54,104.7,104.7,0,0,1,22-14.42,86.241,86.241,0,0,1,19-6.18,89.954,89.954,0,0,1,14-2.06c1.649-.157,3.13-.988,4-1.03.4-.006.731,0,1,0,.223,0,0-.014,0,0" transform="translate(-21760.037 7192.62)" fill="#fff"/>
      <path id="Path_1754" data-name="Path 1754" d="M87.027,196.693c-.087.037-.324-1.18-1-3.09a36.2,36.2,0,0,1-2-7.21,55.132,55.132,0,0,1-1-8.24,4.548,4.548,0,0,1,1-3.09c.237.01-.941,5.277,0,11.33.9,6.056,3.223,10.215,3,10.3" transform="translate(-21760.461 7223.692)" fill="#fff"/>
      <path id="Path_1755" data-name="Path 1755" d="M69.84,193.237a.794.794,0,0,0,0-1.03,19.972,19.972,0,0,1-2-3.09,14.961,14.961,0,0,1-2-9.27c.526-4.059,3.268-7.348,5-9.27a14.475,14.475,0,0,1,2-2.06,7.557,7.557,0,0,0,1-1.03c.084.112-1.418,1.1-3,3.09a19.6,19.6,0,0,0-4,9.27c-.494,3.869.972,6.959,2,9.27,1.024,2.343,1.109,4.035,1,4.12" transform="translate(-21768.273 7219.938)" fill="#fff"/>
      <path id="Path_1756" data-name="Path 1756" d="M251.313,174.024c-.159.177-2.583-1.4-6-3.09-3.4-1.721-6.036-1.822-6-2.06-.006-.192,3.459-.758,7,1.03,3.556,1.757,5.151,4.006,5,4.12" transform="translate(-21686.746 7221.642)" fill="#fff"/>
      <path id="Path_1757" data-name="Path 1757" d="M119.955,390.554a3.518,3.518,0,0,0,0-1.03c-.129-.241-.811.354-1,0-.435-.845-1.257-2.675-2-4.12-.38-.755-.545-1.154-1-2.06-.422-.936-.511-2.006-1-3.09-.989-2.17-1.92-4.4-3-7.21-.558-1.4-1.394-3.627-2-5.15-.556-1.546-1.4-2.457-2-4.12-1.249-3.312-1.752-7.551-3-11.33-2.279-7.632-5.037-15.731-7-24.72-1.921-9-2.841-17.858-4-25.75-1.07-7.9-2.535-14.583-3-20.6-.282-3,.145-5.848,0-8.24-.163-2.392-.953-4.493-1-6.18-.054-1.633.031-3.166,0-4.12-.006-.4,0-.756,0-1.03,0-.228-.013,0,0,0s-.025-.226,0,0c.023.274-.036.627,0,1.03.065.953-.112,2.49,0,4.12.093,1.682.8,3.794,1,6.18.185,2.386.683,5.243,1,8.24.532,6,.893,12.715,2,20.6,1.194,7.871,3.083,16.769,5,25.75,1.959,8.968,3.763,17.1,6,24.72,1.226,3.776,2.778,8.02,4,11.33.582,1.666.459,2.573,1,4.12.59,1.526,1.459,2.719,2,4.12,1.047,2.814,2.049,6.058,3,8.24.467,1.092.6,2.148,1,3.09.432.917,1.639,1.3,2,2.06.688,1.471.6,3.26,1,4.12.163.367.888-.25,1,0a3.468,3.468,0,0,1,0,1.03" transform="translate(-21757.389 7266.729)" fill="#fff"/>
      <path id="Path_1758" data-name="Path 1758" d="M78.08,266.336c-.015.214-5.147.428-11,0s-10.015-.814-10-1.03,4.144-.431,10,0,11.015.817,11,1.03" transform="translate(-21772.514 7268.379)" fill="#fff"/>
      <path id="Path_1759" data-name="Path 1759" d="M156.338,387.775c-.009.052.089-.841-1-1.03a44.907,44.907,0,0,1-11-3.09c-2.359-1.168-5.518-2.34-8-4.12-2.468-1.8-4.134-4.288-6-6.18-1.84-1.92-3.837-3.5-5-5.15a22.69,22.69,0,0,1-2-4.12,14.368,14.368,0,0,1-1-2.06c.124-.076,1.57,1.987,4,5.15,1.2,1.588,2.16,4.314,4,6.18,1.869,1.838,4.569,3.371,7,5.15a52.7,52.7,0,0,0,7,4.12c2.328,1.152,4.142,2.461,6,3.09,3.711,1.285,6.028,1.915,6,2.06" transform="translate(-21742.771 7316.889)" fill="#fff"/>
      <path id="Path_1760" data-name="Path 1760" d="M212.424,154.514c0,.216-17.98,1.03-40,1.03s-39-.814-39-1.03,16.971,0,39,0,40-.216,40,0" transform="translate(-21737.857 7213.342)" fill="#fff"/>
      <path id="Path_1761" data-name="Path 1761" d="M160.811,222.165c0,.027.445-.048,0,0-.532.048-1.229-.069-2,0-.843.073-1.8,1.01-3,1.03s-2.485.049-4,0c-3.035-.007-7.01-.594-11-1.03a113.328,113.328,0,0,1-13-2.06,123.988,123.988,0,0,1-13-4.12,85.362,85.362,0,0,1-9-4.12c-1.377-.655-2.934-1.482-4-2.06s-2.276-1.6-3-2.06c-.659-.415-.543-.742-1-1.03-.377-.246-1.013.024-1,0a1.4,1.4,0,0,1,1,0c.476.252.314.666,1,1.03.743.413,1.917,1.528,3,2.06s2.613.411,4,1.03c2.735,1.318,6.25,2.721,10,4.12a113.351,113.351,0,0,0,12,4.12,124.26,124.26,0,0,0,13,2.06c3.961.472,7.982.952,11,1.03,1.511.084,2.8-.014,4,0s2.155.028,3,0c.772-.01,1.465.006,2,0,.445,0,0-.027,0,0" transform="translate(-21754.244 7239.42)" fill="#fff"/>
      <path id="Path_1762" data-name="Path 1762" d="M265.84,262.524c0,.012.234-.1,0,0-.276.106-.575-.163-1,0-.98.36-2.287,1.432-4,2.06-1.755.652-4.457,1.292-7,2.06s-4.763,1.23-8,2.06c-1.614.44-3.24,1.581-5,2.06s-4.089.572-6,1.03c-3.814.953-7.665,1.217-12,2.06-8.7,1.511-18.836,3.443-29,4.12a257.565,257.565,0,0,1-28,0c-4.4-.289-9.1-.566-13-1.03-1.952-.213-3.2-.784-5-1.03s-4.345.234-6,0c-3.311-.416-5.388-1.6-8-2.06-2.615-.442-5.181-.6-7-1.03-1.774-.407-2.983-.8-4-1.03-.441-.109-.714.072-1,0a6.341,6.341,0,0,0-1,0,6.159,6.159,0,0,1,1,0c.292.052.554-.078,1,0,1.022.2,2.214.684,4,1.03,1.825.379,4.382.629,7,1.03s5.69.648,9,1.03c1.653.216,3.2.793,5,1.03s3.054-.2,5,0c3.893.436,8.608.76,13,1.03a268.613,268.613,0,0,0,28,0c10.134-.676,20.318-1.622,29-3.09,4.328-.821,8.188-2.167,12-3.09,1.909-.442,4.237-.575,6-1.03s3.386-.608,5-1.03c3.239-.8,5.455-2.349,8-3.09s5.233-1.453,7-2.06c1.732-.569,3.008-.7,4-1.03.435-.133.716.087,1,0,.243-.072,0-.012,0,0" transform="translate(-21743.273 7267.041)" fill="#fff"/>
      <g transform="matrix(1, 0, 0, 1, -21798, 7211.51)" filter="url(#Path_1763)">
        <path id="Path_1763-2" data-name="Path 1763" d="M92.109,271.6s-3.018,188.767,104,192.609,107-190.549,107-190.549,3.629-13.678-3-18.54c-11.46-8.408-39.047-20.31-102-19.57-52.51.617-81.129,8.984-96,16.48-12.245,6.171-10,19.57-10,19.57" transform="translate(35.46 39.24)" fill="url(#linear-gradient)"/>
      </g>
      <ellipse id="Ellipse_94" data-name="Ellipse 94" cx="83.5" cy="13.905" rx="83.5" ry="13.905" transform="translate(-21648.434 7486.304)" fill="#68992d"/>
      <g id="Group_1004" data-name="Group 1004" transform="translate(-21614.609 7549.001)">
        <path id="Path_1764" data-name="Path 1764" d="M228.174,330.721c-1.891,26.656-24.12,47.267-50,45.32s-45.891-25.873-44-52.53a47.743,47.743,0,0,1,51-44.29c25.88,1.949,44.893,24.843,43,51.5" transform="translate(-127.998 -279.088)" fill="#263238"/>
        <path id="Path_1765" data-name="Path 1765" d="M209.311,323.437c-1.378,19.424-17.142,34.381-36,32.96s-33.38-18.686-32-38.11a34.369,34.369,0,0,1,37-31.93c18.858,1.419,32.378,17.656,31,37.08" transform="translate(-122.135 -272.834)" fill="#fff"/>
        <path id="Path_1766" data-name="Path 1766" d="M187.131,376.693a8.578,8.578,0,0,0-1,0c-.852.017-2.374,1.129-4,1.03-3.25-.008-8.41-1.366-14-3.09a51.715,51.715,0,0,1-9-3.09,56.521,56.521,0,0,1-9-6.18c-6.063-4.911-11.369-12.166-15-20.6a52.738,52.738,0,0,1-4-24.72,63.338,63.338,0,0,1,2-11.33c1-3.382,1.685-6.585,3-9.27a45.793,45.793,0,0,1,8-11.33c1.041-1.291,2.406-2.461,3-3.09.622-.6.978-1.055,1-1.03.072.076-1.9,1.6-4,4.12a49.457,49.457,0,0,0-7,11.33,63.52,63.52,0,0,0-3,9.27,65.455,65.455,0,0,0-2,11.33,54.376,54.376,0,0,0,4,24.72,52.042,52.042,0,0,0,15,19.57,58.382,58.382,0,0,0,9,6.18,63.268,63.268,0,0,0,9,4.12,44.324,44.324,0,0,0,13,2.06c3.224.143,5-.107,5,0" transform="translate(-130.956 -274.59)" fill="#fff"/>
        <path id="Path_1767" data-name="Path 1767" d="M-.951,43.762s4.308-2.171,6-3.09c.527-.286.476-.739,1-1.03.27-.15,1.28-.787,1-1.03-2.851-2.473-5.688-5.685-7-9.27a21.827,21.827,0,0,1-1-9.27,22.04,22.04,0,0,1,7-14.42c3.065-3,6.833-4.431,11-5.15a20.122,20.122,0,0,1,18,5.15c3.655,3.346,5.223,7.381,6,12.36,1.216,7.789-.484,15.154-6,20.6-3.355,3.312-7.376,4.589-12,5.15m11-21.63c.019-.431.272-.75,0-1.03-1.855-1.908-4.143-4.274-6-6.18-.186-.19.22.144,0,0a.751.751,0,0,0-1,0,.853.853,0,0,0,0,1.03c.111.2-.158-.162,0,0,1.579,1.626,3.423,3.521,5,5.15a1.452,1.452,0,0,1,0,2.06c-.718.694-1.291,1.356-2,2.06-.989.981-2.035,2.085-3,3.09-.386.4-.283.68,0,1.03.31.384.556.245,1,0,.2-.109-.158-.868,0-1.03,1.219-1.25,2.78-1.841,4-3.09.718-.735,1.284-1.323,2-2.06.168-.173.036-.762,0-1.03m-21-7.21c-.226.037.163-.165,0,0-.455.46-1.548.566-2,1.03-1.473,1.513-2.535,3.629-4,5.15-.855.888-.856,1.185,0,2.06.325.332.674.7,1,1.03,1.58,1.605,3.412,3.554,5,5.15a.609.609,0,0,0,1,0c.314-.316.325-.607,0-1.03-.06-.078.069-.96,0-1.03-1.518-1.547-3.473-2.582-5-4.12-.806-.812-.807-1.224,0-2.06,1.516-1.57,3.484-3.58,5-5.15.177-.184-.1.241,0,0,.181-.45-.53-1.037-1-1.03m10,0c-.441-.044-.811-.426-1,0-1.628,3.671-2.37,7.66-4,11.33-.34.765-.7,1.28-1,2.06-.177.452-.348.832,0,1.03.41.233.712.371,1,0,.128-.165-.086-.837,0-1.03,1.861-4.189,4.143-8.169,6-12.36a2.437,2.437,0,0,0,0-1.03c-.019-.452-.5.017-1,0" transform="translate(33.126 26.41)" fill="url(#linear-gradient-2)"/>
      </g>
      <g id="Group_1006" data-name="Group 1006" transform="translate(-21798 7428.549)">
        <path id="Path_1775" data-name="Path 1775" d="M5.1,221.179c0,9.469,7.806,17.51,17,17.51s16-8.041,16-17.51-6.806-16.48-16-16.48-17,7.011-17,16.48" transform="translate(2.471 -187.113)" fill="#263238"/>
        <path id="Path_1776" data-name="Path 1776" d="M26.311,224.038l14-12.36c1.505-1.309,1.271-3.6,0-5.15h0c-1.271-1.55-3.495-2.339-5-1.03l-14,12.36Z" transform="translate(12.255 -194.092)" fill="#263238"/>
        <path id="Path_1777" data-name="Path 1777" d="M24.621,213.653v-17.51c0-2.03-1.028-3.09-3-3.09h-1c-1.97,0-3,1.06-3,3.09v17.51c0,.292-.285,1.03,0,1.03h7c.285,0,0-.738,0-1.03" transform="translate(7.946 -192.977)" fill="#263238"/>
        <path id="Path_1778" data-name="Path 1778" d="M20.445,213.391l-4-17.51c-.43-1.98-2.078-3.533-4-3.09l-1,1.03a3.609,3.609,0,0,0-3,4.12l4,17.51c.063.285.722.063,1,0l6-1.03c.278-.064,1.063-.744,1-1.03" transform="translate(4.121 -192.715)" fill="#263238"/>
        <path id="Path_1779" data-name="Path 1779" d="M15.844,213.735l-9-15.45a3.573,3.573,0,0,0-5-1.03h0c-1.706,1.014-1.985,3.393-1,5.15l8,15.45c.143.253.753.147,1,0l6-3.09c.247-.145.143-.777,0-1.03" transform="translate(-0.278 -185.849)" fill="#263238"/>
      </g>
      <path id="Path_1780" data-name="Path 1780" d="M37.088,250.994c-.183.1-3.126-3.809-6-9.27s-5.183-10.2-5-10.3,3.126,3.807,6,9.27,5.183,10.2,5,10.3" transform="translate(-21790.521 7253.851)" fill="#fff"/>
      <path id="Path_1781" data-name="Path 1781" d="M46.514,254.9c-.061.126-1.165-.6-3-1.03a19.149,19.149,0,0,0-8,0,13.8,13.8,0,0,0-6,3.09c-1.445,1.24-1.891,2.144-2,2.06a18.583,18.583,0,0,1,2-2.06c1.4-1.4,3.077-3.391,6-4.12a16.347,16.347,0,0,1,8,0,5.941,5.941,0,0,1,3,2.06" transform="translate(-21785.947 7262.301)" fill="#fff"/>
      <rect id="Rectangle_770" data-name="Rectangle 770" width="66" height="6" rx="3" transform="translate(-21604 7414.026)" fill="#fff"/>
    </g>
  </g>
</svg>
