<svg xmlns="http://www.w3.org/2000/svg" width="148" height="148" viewBox="0 0 148 148">
  <g id="Group_972" data-name="Group 972" transform="translate(-0.459 -0.029)">
    <g id="Group_967" data-name="Group 967" transform="translate(0 0)">
      <g id="Group_966" data-name="Group 966" transform="translate(0 0)">
        <circle id="Ellipse_76" data-name="Ellipse 76" cx="74" cy="74" r="74" transform="translate(0.459 0.029)" fill="#78be24" opacity="0.15"/>
        <circle id="Ellipse_75" data-name="Ellipse 75" cx="41.5" cy="41.5" r="41.5" transform="translate(33.459 32.029)" fill="#78be24"/>
        <g id="check_1_" data-name="check (1)" transform="translate(53.993 58.996)">
          <path id="Path_1631" data-name="Path 1631" d="M13.121,99.908a4.342,4.342,0,0,1-3.075-1.274L.75,89.341a2.562,2.562,0,0,1,0-3.623h0a2.562,2.562,0,0,1,3.623,0l8.748,8.748L36.264,71.323a2.562,2.562,0,0,1,3.623,0h0a2.562,2.562,0,0,1,0,3.623L16.2,98.634A4.342,4.342,0,0,1,13.121,99.908Z" transform="translate(0 -70.573)" fill="#fff"/>
        </g>
      </g>
    </g>
  </g>
</svg>
