<svg xmlns="http://www.w3.org/2000/svg" width="204.957" height="53.252" viewBox="0 0 204.957 53.252">
  <g id="Group_1021" data-name="Group 1021" transform="translate(24365 -1937)">
    <g id="Group_839" data-name="Group 839" transform="translate(-15.395 122)">
      <rect id="Rectangle_639" data-name="Rectangle 639" width="15.186" height="4.758" transform="translate(-24286.07 1826.719)" fill="#fff"/>
      <rect id="Rectangle_640" data-name="Rectangle 640" width="15.186" height="4.758" transform="translate(-24201.338 1825.922)" fill="#fff"/>
      <rect id="Rectangle_643" data-name="Rectangle 643" width="15.186" height="4.758" transform="translate(-24286.07 1844.74)" fill="#fff"/>
      <rect id="Rectangle_644" data-name="Rectangle 644" width="15.186" height="4.758" transform="translate(-24201.338 1843.942)" fill="#fff"/>
      <rect id="Rectangle_641" data-name="Rectangle 641" width="12.959" height="4.758" transform="translate(-24286.07 1835.223)" fill="#fff"/>
      <rect id="Rectangle_642" data-name="Rectangle 642" width="12.959" height="4.758" transform="translate(-24201.338 1834.426)" fill="#fff"/>
      <path id="Path_1437" data-name="Path 1437" d="M6396.812,2438.886l7.98,11.18-7.98,11.108h5.351l5.3-7.339,5.146,7.339h5.5l-8.1-11.108,8.1-11.18H6412.3l-4.841,7.357-5.3-7.357Z" transform="translate(-30664.783 -611.976)" fill="#fff"/>
      <text id="P" transform="translate(-24245.08 1849)" fill="#fff" font-size="34" font-family="MyriadHebrew-Bold, Myriad Hebrew" font-weight="700" letter-spacing="-0.054em"><tspan x="0" y="0">P</tspan></text>
      <text id="SHOPIFY_SUPPORT" data-name="SHOPIFY SUPPORT" transform="translate(-24286.873 1861.755)" fill="#fff" font-size="12" font-family="Poppins-Bold, Poppins" font-weight="700" letter-spacing="0.187em"><tspan x="0" y="0">SHOPIFY SUPPORT</tspan></text>
      <text id="R" transform="translate(-24225.08 1849)" fill="#fff" font-size="34" font-family="MyriadHebrew-Bold, Myriad Hebrew" font-weight="700" letter-spacing="-0.054em"><tspan x="0" y="0">R</tspan></text>
      <text id="S" transform="translate(-24183.238 1849)" fill="#fff" font-size="34" font-family="MyriadHebrew-Bold, Myriad Hebrew" font-weight="700" letter-spacing="-0.054em"><tspan x="0" y="0">S</tspan></text>
      <text id="S-2" data-name="S" transform="translate(-24163.648 1849)" fill="#fff" font-size="34" font-family="MyriadHebrew-Bold, Myriad Hebrew" font-weight="700" letter-spacing="-0.054em"><tspan x="0" y="0">S</tspan></text>
    </g>
    <path id="Path_1440" data-name="Path 1440" d="M-1.124,53.129s5.463-3.2,7.576-4.318c.658-.347,1.307-.713,1.961-1.066.337-.182.407-.329.058-.623A26.37,26.37,0,0,1,.686,36.078,25.826,25.826,0,0,1-.932,24.862,26.36,26.36,0,0,1,7.444,7.228,25.488,25.488,0,0,1,21.037.427a26.118,26.118,0,0,1,22.644,6.5,25.281,25.281,0,0,1,8.366,15.224C53.565,31.6,50.788,39.7,43.9,46.3a25.513,25.513,0,0,1-15.058,6.952M43.319,26.819a1.6,1.6,0,0,0-.6-1.224q-3.474-3.471-6.947-6.944a4.59,4.59,0,0,0-.757-.628.879.879,0,0,0-1.181.15.86.86,0,0,0-.142,1.135,3.067,3.067,0,0,0,.52.644q2.959,2.957,5.914,5.919c.709.712.705,1.053-.013,1.727-.9.842-1.808,1.668-2.693,2.521-1.235,1.19-2.463,2.386-3.669,3.605a.881.881,0,0,0-.137,1.336,1.061,1.061,0,0,0,1.44.258A2.817,2.817,0,0,0,35.7,34.8q2.284-2.273,4.569-4.544c.9-.891,1.8-1.779,2.691-2.673a.9.9,0,0,0,.359-.762M16.932,17.8a1.316,1.316,0,0,0-.731.364c-.569.558-1.139,1.114-1.7,1.676q-2.76,2.753-5.513,5.511C7.916,26.43,7.929,27,9,28.056c.406.4.819.8,1.226,1.2,1.973,1.946,3.939,3.9,5.923,5.835a.992.992,0,0,0,1.439.137,1.1,1.1,0,0,0-.02-1.508,3,3,0,0,0-.245-.269c-1.9-1.876-3.787-3.759-5.694-5.623-1.007-.984-1.02-1.206-.011-2.219q2.841-2.855,5.678-5.714a2.375,2.375,0,0,0,.546-.751,1.075,1.075,0,0,0-.908-1.342M29.5,17.552c-.551-.054-.864.312-1.1.829q-3.049,6.677-6.112,13.349c-.424.927-.855,1.853-1.236,2.8a.816.816,0,0,0,.371,1.155.968.968,0,0,0,1.342-.239,3.192,3.192,0,0,0,.394-.667q3.487-7.619,6.964-15.242a2.49,2.49,0,0,0,.3-1.145c-.024-.548-.294-.818-.918-.839" transform="translate(-24363.877 1937)" fill="#fff"/>
  </g>
</svg>
